<?xml version="1.0" encoding="UTF-8"?>
<svg width="163px" height="299px" viewBox="0 0 163 299" version="1.1" xmlns="http://www.w3.org/2000/svg" xmlns:xlink="http://www.w3.org/1999/xlink">
    <title>Group 10</title>
    <g id="Page-1" stroke="none" stroke-width="1" fill="none" fill-rule="evenodd">
        <g id="LP1" transform="translate(-439.000000, -697.000000)" fill="#FFFFFF" fill-rule="nonzero">
            <g id="Group-10" transform="translate(439.000000, 697.000000)">
                <path d="M99.9121213,279.379291 L102.628591,281.794448 L85.6609218,297.48283 C84.9151318,298.17239 83.6902421,298.17239 82.9444522,297.48283 L65.9767831,281.794448 L68.6932526,279.379291 L84.302687,293.811842 L99.9121213,279.379291 Z M99.9121213,266.987651 L102.628591,269.402808 L85.6609218,285.091189 C84.9151318,285.78075 83.6902421,285.78075 82.9444522,285.091189 L65.9767831,269.402808 L68.6932526,266.987651 L84.302687,281.420202 L99.9121213,266.987651 Z M128.43075,203.680602 C131.82075,203.680602 134.55075,204.700602 136.62075,206.800602 C138.87075,209.020602 140.07075,212.380602 140.07075,216.310602 C140.07075,224.050602 135.45075,229.120602 128.43075,229.120602 C121.35075,229.120602 116.79075,224.110602 116.79075,216.340602 C116.79075,208.630602 121.35075,203.680602 128.43075,203.680602 Z M8.16075037,204.190602 C7.95075037,206.020602 7.92075037,206.410602 7.92075037,208.750602 L7.92075037,224.140602 L16.3372372,224.139892 C18.1630551,224.132751 19.1632504,224.071227 20.4007504,223.930602 L20.4007504,223.930602 L20.4007504,228.151599 L20.4064926,228.113882 C20.5257459,227.179162 20.5733193,226.213722 20.5799326,224.802842 L20.5807504,224.440602 L20.5807504,208.330602 C20.5807504,206.260602 20.5207504,205.480602 20.3407504,204.190602 L20.3407504,204.190602 L25.8607504,204.190602 C25.6807504,205.390602 25.6207504,206.320602 25.6207504,208.330602 L25.6215681,224.813296 C25.6292837,226.501136 25.6927504,227.488602 25.8607504,228.580602 L25.8607504,228.580602 L20.4007504,228.580599 L20.4007504,228.790602 C19.5851254,228.678102 18.0575863,228.59197 16.3125179,228.581642 L15.9607504,228.580602 L6.41852815,228.581002 C4.77275037,228.584736 3.73675037,228.614602 2.70075037,228.670602 C2.88075037,227.560602 2.94075037,226.390602 2.94075037,224.500602 L2.94075037,224.500602 L2.94075037,208.810602 C2.94075037,206.740602 2.88075037,205.570602 2.70075037,204.190602 L2.70075037,204.190602 Z M27.6007504,204.100602 C28.8150361,204.17346 29.2625871,204.187337 30.5826616,204.18998 L30.5826616,204.18998 L31.3720494,204.190593 L31.6807504,204.190602 L39.1507504,204.190602 C43.9207504,204.190602 46.6207504,206.350602 46.6207504,210.220602 C46.6207504,212.110602 46.0507504,213.490602 44.9107504,214.510602 C44.3107504,215.080602 43.7707504,215.350602 42.6607504,215.770602 C44.0407504,216.130602 44.7907504,216.490602 45.5707504,217.180602 C46.8307504,218.320602 47.4607504,219.850602 47.4607504,221.860602 C47.4607504,226.180602 44.6107504,228.580602 39.4807504,228.580602 L39.4807504,228.580602 L31.352142,228.580954 C29.6204769,228.58447 28.7820004,228.614352 27.6007504,228.670602 C27.7807504,227.350602 27.8407504,226.480602 27.8407504,224.440602 L27.8407504,224.440602 L27.8407504,208.150602 C27.8407504,206.650602 27.7807504,205.450602 27.6007504,204.100602 Z M146.67075,204.190602 C146.94075,204.970602 147.54075,206.050602 148.62075,207.640602 L148.62075,207.640602 L155.52075,217.930602 C156.21075,218.950602 156.93075,220.150602 157.56075,221.350602 C157.47075,220.300602 157.38075,218.710602 157.38075,217.600602 L157.38075,217.600602 L157.38075,208.510602 C157.38075,206.560602 157.32075,205.480602 157.11075,204.190602 L157.11075,204.190602 L162.48075,204.190602 C162.30075,205.450602 162.24075,206.620602 162.24075,208.540602 L162.24075,224.410602 C162.24075,226.180602 162.30075,227.470602 162.48075,228.580602 L162.48075,228.580602 L156.84075,228.580602 C156.48075,227.770602 155.76075,226.540602 154.80075,225.070602 L154.80075,225.070602 L147.90075,214.810602 C147.30075,213.910602 146.79075,213.010602 145.98075,211.450602 C145.986375,211.518102 145.990946,211.572946 145.995252,211.624428 L145.995252,211.624428 L146.003748,211.725663 C146.019539,211.913142 146.038875,212.138727 146.10075,212.860602 C146.13075,213.370602 146.19075,214.630602 146.19075,215.230602 L146.19075,215.230602 L146.191568,224.389936 C146.199284,226.213669 146.26275,227.488602 146.43075,228.580602 L146.43075,228.580602 L141.09075,228.580602 C141.27075,227.500602 141.33075,226.090602 141.33075,223.960602 L141.33075,223.960602 L141.33075,208.360602 C141.33075,206.710602 141.27075,205.510602 141.09075,204.190602 L141.09075,204.190602 Z M115.83075,204.190602 C115.65075,205.390602 115.59075,206.320602 115.59075,208.330602 L115.591568,224.813296 C115.599284,226.501136 115.66275,227.488602 115.83075,228.580602 L115.83075,228.580602 L110.31075,228.580602 C110.49075,227.410602 110.55075,226.300602 110.55075,224.440602 L110.55075,224.440602 L110.55075,208.330602 C110.55075,206.260602 110.49075,205.480602 110.31075,204.190602 L110.31075,204.190602 Z M110.10075,203.980602 L110.10075,208.810602 C108.87075,208.660602 107.73075,208.600602 105.57075,208.600602 L101.97075,208.600602 L101.97075,224.380602 C101.97075,226.090602 102.03075,227.290602 102.21075,228.580602 L102.21075,228.580602 L96.6907504,228.580602 C96.8707504,227.290602 96.9307504,226.120602 96.9307504,224.380602 L96.9307504,224.380602 L96.9307504,208.600602 L93.1207504,208.600602 C91.3207504,208.600602 90.0307504,208.660602 88.8307504,208.810602 L88.8307504,208.810602 L88.8307504,203.980602 C90.0307504,204.130602 91.3507504,204.190602 93.0907504,204.190602 L93.0907504,204.190602 L105.57075,204.190602 C107.67075,204.190602 108.87075,204.130602 110.10075,203.980602 L110.10075,203.980602 Z M83.9707504,204.190602 L84.0314088,204.446734 C84.1966763,205.123936 84.4040837,205.790602 84.9907504,207.310602 L84.9907504,207.310602 L91.5907504,224.980602 C92.1607504,226.510602 92.7007504,227.830602 93.0607504,228.580602 L93.0607504,228.580602 L87.1207504,228.580602 C86.9107504,227.350602 86.6407504,226.300602 86.3407504,225.400602 L86.3407504,225.400602 L85.3207504,222.490602 L76.2607504,222.490602 L75.2407504,225.400602 C74.7607504,226.750602 74.5807504,227.560602 74.4307504,228.580602 L74.4307504,228.580602 L69.6907504,228.580602 C69.464868,228.107661 69.2738646,227.7078 69.1056252,227.35288 L69.0937504,227.328599 L69.1509904,227.197776 C69.376297,226.674549 69.615977,226.067696 69.8974704,225.313189 L70.0207504,224.980602 L76.5607504,207.310602 C77.1007504,205.810602 77.3407504,205.030602 77.5207504,204.190602 L77.5207504,204.190602 L83.9707504,204.190602 Z M48.5707504,204.100602 C49.8307504,204.160602 50.8807504,204.190602 52.7107504,204.190602 L52.7107504,204.190602 L60.1807504,204.190602 C64.8907504,204.190602 67.5907504,206.590602 67.5907504,210.700602 C67.5907504,212.710602 67.0207504,214.300602 65.9407504,215.380602 C65.1307504,216.160602 64.4107504,216.550602 62.8207504,217.000602 C64.7407504,217.600602 65.2807504,218.380602 67.7707504,224.350602 C68.2154563,225.430602 68.5106812,226.092056 68.9835246,227.094677 L69.0937504,227.328599 L69.0552304,227.417082 C68.8651504,227.846202 68.6827504,228.220602 68.4907504,228.580602 L63.7207504,228.580602 C63.6307504,227.770602 63.2707504,226.630602 62.2207504,223.810602 C61.3807504,221.620602 60.8707504,220.570602 60.1807504,219.880602 C59.4907504,219.130602 58.6207504,218.800602 57.5107504,218.800602 L57.5107504,218.800602 L53.7307504,218.800602 L53.7315681,224.722949 C53.7392837,226.407802 53.8027504,227.376602 53.9707504,228.580602 L53.9707504,228.580602 L48.5707504,228.580602 C48.7507504,227.260602 48.8107504,226.390602 48.8107504,224.380602 L48.8107504,224.380602 L48.8107504,208.240602 C48.8107504,206.500602 48.7507504,205.570602 48.5707504,204.100602 Z M128.43075,208.000602 C124.44075,208.000602 121.92075,211.210602 121.92075,216.280602 C121.92075,221.500602 124.44075,224.770602 128.46075,224.770602 C132.45075,224.770602 134.91075,221.560602 134.91075,216.340602 C134.91075,213.400602 134.13075,211.120602 132.69075,209.680602 C131.58075,208.570602 130.11075,208.000602 128.43075,208.000602 Z M38.6707504,217.930602 L32.7607504,217.930602 L32.7607504,224.410602 L38.7307504,224.410602 C41.0107504,224.410602 42.3307504,223.210602 42.3307504,221.140602 C42.3307504,219.070602 41.0107504,217.930602 38.6707504,217.930602 L38.6707504,217.930602 Z M80.7607504,208.391599 L80.6996371,208.606169 C80.5704379,209.065134 80.5245004,209.245602 80.3407504,209.770602 L80.3407504,209.770602 L77.5207504,218.260602 L84.0607504,218.260602 L81.2107504,209.770602 C81.1207504,209.500602 81.0007504,209.200602 80.7607504,208.390602 L80.7607504,208.391599 Z M59.1907504,208.360602 L53.7307504,208.360602 L53.7307504,214.570602 L59.1007504,214.570602 C61.1407504,214.570602 62.4607504,213.280602 62.4607504,211.300602 C62.4607504,209.350602 61.3507504,208.360602 59.1907504,208.360602 L59.1907504,208.360602 Z M38.4607504,208.330602 L32.7607504,208.330602 L32.7607504,213.880602 L38.4907504,213.880602 C40.4707504,213.880602 41.6407504,212.800602 41.6407504,211.060602 C41.6407504,209.290602 40.5307504,208.330602 38.4607504,208.330602 L38.4607504,208.330602 Z M70.5607504,167.980602 L70.5607504,172.720602 C69.3007504,172.570602 68.2807504,172.510602 66.3907504,172.510602 L58.2007504,172.510602 L58.2007504,177.880602 L65.0407504,177.880602 C66.7207504,177.880602 67.8307504,177.820602 69.2407504,177.670602 L69.2407504,177.670602 L69.2407504,182.350602 C67.9507504,182.200602 67.0207504,182.140602 65.0407504,182.140602 L58.1707504,182.140602 L58.1707504,188.230602 L67.1111237,188.229794 C68.7403504,188.222202 69.6587504,188.160602 70.8907504,188.020602 L70.8907504,188.020602 L70.8907504,192.790602 C69.7807504,192.640602 68.6707504,192.580602 66.7207504,192.580602 L56.7728835,192.580914 C54.9805774,192.584236 54.1683974,192.614132 53.0107504,192.670602 C53.1907504,191.470602 53.2507504,190.420602 53.2507504,188.500602 L53.2507504,188.500602 L53.2507504,172.210602 C53.2507504,170.500602 53.1907504,169.510602 53.0107504,168.100602 C54.2407504,168.160602 55.0207504,168.190602 57.0907504,168.190602 L57.0907504,168.190602 L66.3907504,168.190602 C68.0107504,168.190602 69.0307504,168.130602 70.5607504,167.980602 L70.5607504,167.980602 Z M134.10075,167.997599 L134.10075,172.699599 L134.031621,172.691794 C132.963079,172.572078 132.019221,172.51846 130.477479,172.511411 L121.92075,172.510602 L121.92075,177.880602 L128.76075,177.880602 C130.44075,177.880602 131.55075,177.820602 132.96075,177.670602 L132.96075,177.670602 L132.96075,182.350602 C131.67075,182.200602 130.74075,182.140602 128.76075,182.140602 L121.89075,182.140602 L121.89075,188.230602 L130.831124,188.229794 C132.46035,188.222202 133.37875,188.160602 134.61075,188.020602 L134.61075,188.020602 L134.61075,192.790602 C133.50075,192.640602 132.39075,192.580602 130.44075,192.580602 L120.492883,192.580914 C118.700577,192.584236 117.888397,192.614132 116.73075,192.670602 C116.91075,191.470602 116.97075,190.420602 116.97075,188.500602 L116.97075,188.500602 L116.97075,172.210602 C116.97075,170.500602 116.91075,169.510602 116.73075,168.100602 C117.96075,168.160602 118.74075,168.190602 120.81075,168.190602 L120.81075,168.190602 L130.11075,168.190602 C131.73075,168.190602 132.75075,168.130602 134.28075,167.980602 L134.10075,167.997599 Z M15.5407504,168.190602 C15.8107504,168.970602 16.4107504,170.050602 17.4907504,171.640602 L17.4907504,171.640602 L24.3907504,181.930602 C25.0807504,182.950602 25.8007504,184.150602 26.4307504,185.350602 C26.3407504,184.300602 26.2507504,182.710602 26.2507504,181.600602 L26.2507504,181.600602 L26.2507504,172.510602 C26.2507504,170.560602 26.1907504,169.480602 25.9807504,168.190602 L25.9807504,168.190602 L31.3507504,168.190602 C31.1707504,169.450602 31.1107504,170.620602 31.1107504,172.540602 L31.1107504,188.410602 C31.1107504,190.180602 31.1707504,191.470602 31.3507504,192.580602 L31.3507504,192.580602 L25.7107504,192.580602 C25.3507504,191.770602 24.6307504,190.540602 23.6707504,189.070602 L23.6707504,189.070602 L16.7707504,178.810602 C16.1707504,177.910602 15.6607504,177.010602 14.8507504,175.450602 C14.8563754,175.518102 14.8609457,175.572946 14.8652523,175.624428 L14.8652523,175.624428 L14.8737484,175.725663 C14.8895394,175.913142 14.9088754,176.138727 14.9707504,176.860602 C15.0007504,177.370602 15.0607504,178.630602 15.0607504,179.230602 L15.0607504,179.230602 L15.0615681,188.389936 C15.0692837,190.213669 15.1327504,191.488602 15.3007504,192.580602 L15.3007504,192.580602 L9.96075037,192.580602 C10.1407504,191.500602 10.2007504,190.090602 10.2007504,187.960602 L10.2007504,187.960602 L10.2007504,172.360602 C10.2007504,170.710602 10.1407504,169.510602 9.96075037,168.190602 L9.96075037,168.190602 Z M155.37075,167.980602 L155.37075,172.810602 C154.14075,172.660602 153.00075,172.600602 150.84075,172.600602 L147.24075,172.600602 L147.24075,188.380602 C147.24075,190.090602 147.30075,191.290602 147.48075,192.580602 L147.48075,192.580602 L141.96075,192.580602 C142.14075,191.290602 142.20075,190.120602 142.20075,188.380602 L142.20075,188.380602 L142.20075,172.600602 L138.39075,172.600602 C136.59075,172.600602 135.30075,172.660602 134.10075,172.810602 L134.10075,172.810602 L134.10075,172.699599 L134.28075,172.720602 L134.28075,172.720602 L134.28075,168.001599 L134.403424,168.016245 C135.421827,168.128918 136.540924,168.180828 137.934327,168.189335 L138.36075,168.190602 L151.224181,168.189892 C153.090868,168.182751 154.217625,168.121227 155.37075,167.980602 L155.37075,167.980602 Z M71.9407504,168.100602 C73.2007504,168.160602 74.2507504,168.190602 76.0807504,168.190602 L76.0807504,168.190602 L83.5507504,168.190602 C88.2607504,168.190602 90.9607504,170.590602 90.9607504,174.700602 C90.9607504,176.710602 90.3907504,178.300602 89.3107504,179.380602 C88.5007504,180.160602 87.7807504,180.550602 86.1907504,181.000602 C88.1107504,181.600602 88.6507504,182.380602 91.1407504,188.350602 C91.7707504,189.880602 92.1007504,190.570602 93.0607504,192.580602 L93.0607504,192.580602 L87.0907504,192.580602 C87.0007504,191.770602 86.6407504,190.630602 85.5907504,187.810602 C84.7507504,185.620602 84.2407504,184.570602 83.5507504,183.880602 C82.8607504,183.130602 81.9907504,182.800602 80.8807504,182.800602 L80.8807504,182.800602 L77.1007504,182.800602 L77.1015681,188.722949 C77.1092837,190.407802 77.1727504,191.376602 77.3407504,192.580602 L77.3407504,192.580602 L71.9407504,192.580602 C72.1207504,191.260602 72.1807504,190.390602 72.1807504,188.380602 L72.1807504,188.380602 L72.1807504,172.240602 C72.1807504,170.500602 72.1207504,169.570602 71.9407504,168.100602 Z M52.8007504,167.980602 L52.8007504,172.810602 C51.5707504,172.660602 50.4307504,172.600602 48.2707504,172.600602 L44.6707504,172.600602 L44.6707504,188.380602 C44.6707504,190.090602 44.7307504,191.290602 44.9107504,192.580602 L44.9107504,192.580602 L39.3907504,192.580602 C39.5707504,191.290602 39.6307504,190.120602 39.6307504,188.380602 L39.6307504,188.380602 L39.6307504,172.600602 L35.8207504,172.600602 C34.0207504,172.600602 32.7307504,172.660602 31.5307504,172.810602 L31.5307504,172.810602 L31.5307504,167.980602 C32.7307504,168.130602 34.0507504,168.190602 35.7907504,168.190602 L35.7907504,168.190602 L48.6541805,168.189892 C50.5208676,168.182751 51.6476254,168.121227 52.8007504,167.980602 L52.8007504,167.980602 Z M99.1807504,168.190602 C99.4507504,168.970602 100.05075,170.050602 101.13075,171.640602 L101.13075,171.640602 L108.03075,181.930602 C108.72075,182.950602 109.44075,184.150602 110.07075,185.350602 C109.98075,184.300602 109.89075,182.710602 109.89075,181.600602 L109.89075,181.600602 L109.89075,172.510602 C109.89075,170.560602 109.83075,169.480602 109.62075,168.190602 L109.62075,168.190602 L114.99075,168.190602 C114.81075,169.450602 114.75075,170.620602 114.75075,172.540602 L114.75075,188.410602 C114.75075,190.180602 114.81075,191.470602 114.99075,192.580602 L114.99075,192.580602 L109.35075,192.580602 C108.99075,191.770602 108.27075,190.540602 107.31075,189.070602 L107.31075,189.070602 L100.41075,178.810602 C99.8107504,177.910602 99.3007504,177.010602 98.4907504,175.450602 C98.4963754,175.518102 98.5009457,175.572946 98.5052523,175.624428 L98.5052523,175.624428 L98.5137484,175.725663 C98.5295394,175.913142 98.5488754,176.138727 98.6107504,176.860602 C98.6407504,177.370602 98.7007504,178.630602 98.7007504,179.230602 L98.7007504,179.230602 L98.7015681,188.389936 C98.7092837,190.213669 98.7727504,191.488602 98.9407504,192.580602 L98.9407504,192.580602 L93.6007504,192.580602 C93.7807504,191.500602 93.8407504,190.090602 93.8407504,187.960602 L93.8407504,187.960602 L93.8407504,172.360602 C93.8407504,170.710602 93.7807504,169.510602 93.6007504,168.190602 L93.6007504,168.190602 Z M8.22075037,168.190602 C8.04075037,169.390602 7.98075037,170.320602 7.98075037,172.330602 L7.98156815,188.813296 C7.9892837,190.501136 8.05275037,191.488602 8.22075037,192.580602 L8.22075037,192.580602 L2.70075037,192.580602 C2.88075037,191.410602 2.94075037,190.300602 2.94075037,188.440602 L2.94075037,188.440602 L2.94075037,172.330602 C2.94075037,170.260602 2.88075037,169.480602 2.70075037,168.190602 L2.70075037,168.190602 Z M82.5607504,172.360602 L77.1007504,172.360602 L77.1007504,178.570602 L82.4707504,178.570602 C84.5107504,178.570602 85.8307504,177.280602 85.8307504,175.300602 C85.8307504,173.350602 84.7207504,172.360602 82.5607504,172.360602 L82.5607504,172.360602 Z M96.7807504,131.620602 C100.35075,131.620602 103.05075,132.700602 104.61075,134.740602 C105.36075,135.760602 105.75075,136.630602 106.14075,138.400602 L106.14075,138.400602 L100.86075,138.970602 C100.71075,138.040602 100.50075,137.590602 100.08075,137.050602 C99.3907504,136.240602 98.1907504,135.790602 96.7507504,135.790602 C94.4107504,135.790602 92.8507504,136.930602 92.8507504,138.640602 C92.8507504,139.450602 93.2107504,140.110602 93.8707504,140.590602 C94.5307504,141.010602 95.1307504,141.220602 96.6907504,141.580602 C99.9607504,142.270602 101.40075,142.660602 102.60075,143.200602 C103.83075,143.740602 104.94075,144.670602 105.63075,145.810602 C106.23075,146.800602 106.53075,148.000602 106.53075,149.440602 C106.53075,154.330602 103.11075,157.120602 97.1107504,157.120602 C93.2407504,157.120602 90.3307504,156.040602 88.7407504,154.030602 C87.7507504,152.800602 87.3307504,151.660602 87.0007504,149.320602 L87.0007504,149.320602 L92.2207504,148.810602 C92.3407504,150.040602 92.5207504,150.610602 93.0307504,151.240602 C93.8407504,152.290602 95.2507504,152.860602 97.0207504,152.860602 C99.6307504,152.860602 101.28075,151.660602 101.28075,149.740602 C101.28075,148.810602 100.89075,148.060602 100.11075,147.580602 C99.1807504,146.980602 98.2507504,146.680602 94.9807504,145.930602 C92.4307504,145.330602 91.4407504,144.940602 90.3007504,144.130602 C88.6207504,142.870602 87.7207504,141.040602 87.7207504,138.820602 C87.7207504,134.410602 91.2307504,131.620602 96.7807504,131.620602 Z M126.24075,131.680602 C129.63075,131.680602 132.36075,132.700602 134.43075,134.800602 C136.68075,137.020602 137.88075,140.380602 137.88075,144.310602 C137.88075,152.050602 133.26075,157.120602 126.24075,157.120602 C119.16075,157.120602 114.60075,152.110602 114.60075,144.340602 C114.60075,136.630602 119.16075,131.680602 126.24075,131.680602 Z M41.8507504,131.980602 L41.8507504,136.720602 C40.5907504,136.570602 39.5707504,136.510602 37.6807504,136.510602 L29.4907504,136.510602 L29.4907504,141.880602 L36.3307504,141.880602 C38.0107504,141.880602 39.1207504,141.820602 40.5307504,141.670602 L40.5307504,141.670602 L40.5307504,146.350602 C39.2407504,146.200602 38.3107504,146.140602 36.3307504,146.140602 L29.4607504,146.140602 L29.4607504,152.230602 L38.4011237,152.229794 C40.0303504,152.222202 40.9487504,152.160602 42.1807504,152.020602 L42.1807504,152.020602 L42.1807504,155.126599 L42.1509904,155.197776 C41.9256837,155.721002 41.7147504,156.160602 41.4907504,156.580602 L42.1807504,156.580599 L42.1807504,156.790602 C41.1401254,156.649977 40.0995004,156.588454 38.3667367,156.581313 L28.0628835,156.580914 C26.2705774,156.584236 25.4583974,156.614132 24.3007504,156.670602 C24.4807504,155.470602 24.5407504,154.420602 24.5407504,152.500602 L24.5407504,152.500602 L24.5407504,136.210602 C24.5407504,134.500602 24.4807504,133.510602 24.3007504,132.100602 C25.5307504,132.160602 26.3107504,132.190602 28.3807504,132.190602 L28.3807504,132.190602 L37.6807504,132.190602 C39.3007504,132.190602 40.3207504,132.130602 41.8507504,131.980602 L41.8507504,131.980602 Z M66.0907504,132.100602 C67.3507504,132.160602 68.4007504,132.190602 70.2307504,132.190602 L70.2307504,132.190602 L77.7007504,132.190602 C82.4107504,132.190602 85.1107504,134.590602 85.1107504,138.700602 C85.1107504,140.710602 84.5407504,142.300602 83.4607504,143.380602 C82.6507504,144.160602 81.9307504,144.550602 80.3407504,145.000602 C82.2607504,145.600602 82.8007504,146.380602 85.2907504,152.350602 C85.9207504,153.880602 86.2507504,154.570602 87.2107504,156.580602 L87.2107504,156.580602 L81.2407504,156.580602 C81.1507504,155.770602 80.7907504,154.630602 79.7407504,151.810602 C78.9007504,149.620602 78.3907504,148.570602 77.7007504,147.880602 C77.0107504,147.130602 76.1407504,146.800602 75.0307504,146.800602 L75.0307504,146.800602 L71.2507504,146.800602 L71.2515681,152.722949 C71.2592837,154.407802 71.3227504,155.376602 71.4907504,156.580602 L71.4907504,156.580602 L66.0907504,156.580602 C66.2707504,155.260602 66.3307504,154.390602 66.3307504,152.380602 L66.3307504,152.380602 L66.3307504,136.240602 C66.3307504,134.500602 66.2707504,133.570602 66.0907504,132.100602 Z M7.35075037,132.190602 C7.62075037,133.060602 8.01075037,133.930602 8.76075037,135.220602 L8.76075037,135.220602 L12.6007504,141.970602 L16.4707504,135.250602 C17.2507504,133.930602 17.6707504,133.000602 17.8807504,132.190602 L17.8807504,132.190602 L24.2707504,132.190602 C23.6107504,133.090602 22.5907504,134.590602 22.0207504,135.550602 L22.0207504,135.550602 L15.1207504,146.710602 L15.1207504,152.440602 C15.1207504,153.970602 15.1807504,155.080602 15.3607504,156.580602 L15.3607504,156.580602 L9.87075037,156.580602 C10.0207504,155.350602 10.1107504,154.030602 10.1107504,152.440602 L10.1107504,152.440602 L10.1107504,146.680602 L3.21075037,135.550602 C2.43075037,134.350602 1.68075037,133.240602 0.960750371,132.190602 L0.960750371,132.190602 Z M156.06075,131.980602 L156.06075,136.810602 C154.92075,136.660602 153.72075,136.600602 151.77075,136.600602 L144.12075,136.600602 L144.12075,142.300602 L150.63171,142.299892 C152.386336,142.292751 153.407625,142.231227 154.56075,142.090602 L154.56075,142.090602 L154.56075,146.800602 C153.42075,146.650602 152.16075,146.590602 150.27075,146.590602 L144.12075,146.590602 L144.121316,152.440525 C144.127787,154.424121 144.19075,155.475602 144.36075,156.580602 L144.36075,156.580602 L138.90075,156.580602 C139.08075,155.470602 139.17075,154.180602 139.17075,152.140602 L139.17075,152.140602 L139.17075,136.210602 C139.17075,134.410602 139.11075,133.480602 138.93075,132.100602 C139.13075,132.110602 139.319917,132.119769 139.505889,132.128102 L139.505889,132.128102 L139.875838,132.143658 C140.677973,132.174954 141.51575,132.190602 143.01075,132.190602 L143.01075,132.190602 L151.74075,132.190602 C153.75075,132.190602 154.77075,132.130602 156.06075,131.980602 L156.06075,131.980602 Z M56.9707504,132.190602 L57.0314088,132.446734 C57.1966763,133.123936 57.4040837,133.790602 57.9907504,135.310602 L57.9907504,135.310602 L64.5907504,152.980602 C65.1607504,154.510602 65.7007504,155.830602 66.0607504,156.580602 L66.0607504,156.580602 L60.1207504,156.580602 C59.9107504,155.350602 59.6407504,154.300602 59.3407504,153.400602 L59.3407504,153.400602 L58.3207504,150.490602 L49.2607504,150.490602 L48.2407504,153.400602 C47.7607504,154.750602 47.5807504,155.560602 47.4307504,156.580602 L47.4307504,156.580602 L42.1807504,156.580599 L42.1807504,155.126599 L42.2485104,154.968229 C42.4456304,154.498149 42.6561904,153.959909 42.8974704,153.313189 L43.0207504,152.980602 L49.5607504,135.310602 C50.1007504,133.810602 50.3407504,133.030602 50.5207504,132.190602 L50.5207504,132.190602 L56.9707504,132.190602 Z M126.24075,136.000602 C122.25075,136.000602 119.73075,139.210602 119.73075,144.280602 C119.73075,149.500602 122.25075,152.770602 126.27075,152.770602 C130.26075,152.770602 132.72075,149.560602 132.72075,144.340602 C132.72075,141.400602 131.94075,139.120602 130.50075,137.680602 C129.39075,136.570602 127.92075,136.000602 126.24075,136.000602 Z M53.7607504,136.391599 L53.6996371,136.606169 C53.5704379,137.065134 53.5245004,137.245602 53.3407504,137.770602 L53.3407504,137.770602 L50.5207504,146.260602 L57.0607504,146.260602 L54.2107504,137.770602 C54.1207504,137.500602 54.0007504,137.200602 53.7607504,136.390602 L53.7607504,136.391599 Z M76.7107504,136.360602 L71.2507504,136.360602 L71.2507504,142.570602 L76.6207504,142.570602 C78.6607504,142.570602 79.9807504,141.280602 79.9807504,139.300602 C79.9807504,137.350602 78.8707504,136.360602 76.7107504,136.360602 L76.7107504,136.360602 Z M112.093167,0.662599377 L112.093167,23.4325994 C105.713167,22.8825994 100.103167,22.6625994 92.5131674,22.6625994 L92.5131674,22.6625994 L67.2131674,22.6625994 L66.3331674,35.2025994 C70.7331674,32.2325994 76.6731674,30.5825994 82.7231674,30.5825994 C91.3031674,30.5825994 99.4431674,32.8925994 105.053167,37.0725994 C113.083167,42.9025994 117.043167,51.5925994 117.043167,63.0325994 C117.043167,84.9225994 102.413167,98.0125994 77.8831674,98.0125994 C65.5631674,98.0125994 55.5531674,94.8225994 48.5131674,88.7725994 C43.0131674,83.9325994 40.5931674,79.5325994 37.9531674,69.5225994 L37.9531674,69.5225994 L64.3531674,65.8925994 C65.1231674,68.9725994 65.6731674,70.2925994 66.7731674,71.7225994 C68.9731674,74.4725994 72.2731674,75.7925994 76.8931674,75.7925994 C85.0331674,75.7925994 90.0931674,71.0625994 90.0931674,63.3625994 C90.0931674,55.6625994 85.0331674,50.7125994 77.2231674,50.7125994 C73.7031674,50.7125994 70.5131674,51.7025994 68.3131674,53.3525994 C66.7731674,54.5625994 66.0031674,55.5525994 65.1231674,57.8625994 L65.1231674,57.8625994 L40.7031674,55.4425994 L45.3231674,1.43259938 L93.4189459,1.43214186 C101.851924,1.42496434 105.801081,1.32964929 110.092996,0.888779212 L110.092996,0.888779212 L110.655151,0.829293592 C111.125895,0.778053922 111.603167,0.722599377 112.093167,0.662599377 L112.093167,0.662599377 Z" id="Combined-Shape"></path>
            </g>
        </g>
    </g>
</svg>