<?xml version="1.0" encoding="UTF-8"?>
<svg width="1327px" height="584px" viewBox="0 0 1327 584" version="1.1" xmlns="http://www.w3.org/2000/svg" xmlns:xlink="http://www.w3.org/1999/xlink">
    <!-- Generator: Sketch 53.2 (72643) - https://sketchapp.com -->
    <title>Group 21</title>
    <desc>Created with Sketch.</desc>
    <defs>
        <radialGradient cx="151.190673%" cy="50%" fx="151.190673%" fy="50%" r="284.504591%" gradientTransform="translate(1.511907,0.500000),scale(0.370323,1.000000),rotate(6.254547),translate(-1.511907,-0.500000)" id="radialGradient-1">
            <stop stop-color="#0095D2" offset="0%"></stop>
            <stop stop-color="#1C2D6B" offset="100%"></stop>
        </radialGradient>
    </defs>
    <g id="Page-1" stroke="none" stroke-width="1" fill="none" fill-rule="evenodd">
        <g id="Nextcloud-Website-Copy" transform="translate(-97.000000, -10997.000000)">
            <g id="Group-21" transform="translate(97.000000, 10997.000000)">
                <g id="Group-43">
                    <rect id="Rectangle" fill="#50E3C2" x="81.3575972" y="397.877863" width="1412.05583" height="22.2900763"></rect>
                    <path d="M494.14516,546.849873 L499.720053,546.849873 L499.720053,584 L442.112825,584 L442.112825,546.849873 L447.687718,546.849873 L447.687718,522.70229 L494.14516,522.70229 L494.14516,546.849873 Z M419.813253,546.849873 L425.388146,546.849873 L425.388146,584 L367.780919,584 L367.780919,546.849873 L373.355812,546.849873 L373.355812,522.70229 L419.813253,522.70229 L419.813253,546.849873 Z M1131.54126,546.849873 L1137.11615,546.849873 L1137.11615,584 L1079.50892,584 L1079.50892,546.849873 L1085.08382,546.849873 L1085.08382,522.70229 L1131.54126,522.70229 L1131.54126,546.849873 Z M1205.87316,546.849873 L1211.44806,546.849873 L1211.44806,584 L1153.84083,584 L1153.84083,546.849873 L1159.41572,546.849873 L1159.41572,522.70229 L1205.87316,522.70229 L1205.87316,546.849873 Z" id="Combined-Shape" fill="#124274"></path>
                    <path d="M403.444523,170.444784 L470.313781,170.444784 L470.313781,185.172745 L403.444523,185.172745 L403.444523,170.444784 Z M403.444523,94.9639808 L470.313781,94.9639808 L470.313781,109.691942 L403.444523,109.691942 L403.444523,94.9639808 Z M403.444523,37.8931298 L470.313781,37.8931298 L470.313781,52.6210913 L403.444523,52.6210913 L403.444523,37.8931298 Z M403.444523,271.699519 L470.313781,271.699519 L470.313781,286.427481 L403.444523,286.427481 L403.444523,271.699519 Z" id="Combined-Shape" fill="#0F2579"></path>
                    <path d="M1111.14417,170.444784 L1178.01343,170.444784 L1178.01343,185.172745 L1111.14417,185.172745 L1111.14417,170.444784 Z M1111.14417,94.9639808 L1178.01343,94.9639808 L1178.01343,109.691942 L1111.14417,109.691942 L1111.14417,94.9639808 Z M1111.14417,37.8931298 L1178.01343,37.8931298 L1178.01343,52.6210913 L1111.14417,52.6210913 L1111.14417,37.8931298 Z M1111.14417,271.699519 L1178.01343,271.699519 L1178.01343,286.427481 L1111.14417,286.427481 L1111.14417,271.699519 Z" id="Combined-Shape" fill="#0F2579"></path>
                    <path d="M471.428269,35.9019558 C471.428269,241.486792 659.139828,365.328948 786.271025,370.738833 C970.347232,359.061902 1101.11378,205.584836 1101.11378,0" id="Path" stroke="#50E3C2"></path>
                    <path d="M0,386.732824 L0,384.897863 C218.74899,384.897863 392.690876,230.008259 392.690876,39.0076336 L394.528622,39.0076336 C394.528622,231.080227 219.71342,386.732824 0,386.732824 Z" id="Path" fill="#50E3C2" fill-rule="nonzero"></path>
                    <path d="M353.29258,193.923664 C353.29258,193.923664 353.29258,193.923664 353.29258,193.923664 L353.29258,397.877863 L353.29258,193.923664 Z M334.98314,222.465326 L334.98314,397.877863 L334.98314,222.465326 C334.98314,222.465326 334.98314,222.465326 334.98314,222.465326 L334.98314,222.465326 Z M316.6737,245.925796 C316.6737,245.925796 316.6737,245.925796 316.6737,245.925796 L316.6737,397.877863 L316.6737,245.925796 Z M280.054821,283.195668 L280.054821,397.877863 L280.054821,283.195668 C280.054821,283.195668 280.054821,283.195668 280.054821,283.195668 Z M261.745381,298.387033 C261.745381,298.387033 261.745381,298.387033 261.745381,298.387033 L261.745381,397.877863 L261.745381,298.387033 Z M243.435941,311.807774 L243.435941,397.877863 L243.435941,311.807774 C243.435941,311.807774 243.435941,311.807774 243.435941,311.807774 Z M225.126502,323.703976 L225.126502,397.877863 L225.126502,323.703976 C225.126502,323.703976 225.126502,323.703976 225.126502,323.703976 Z M206.817062,334.255929 L206.817062,397.877863 L206.817062,334.255929 C206.817062,334.255929 206.817062,334.255929 206.817062,334.255929 L206.817062,334.255929 Z M188.507622,343.599803 C188.507622,343.599803 188.507622,343.599803 188.507622,343.599803 L188.507622,397.877863 L188.507622,343.599803 L188.507622,343.599803 Z M170.198183,351.840858 L170.198183,397.877863 L170.198183,351.840858 C170.198207,351.840848 170.198207,351.840848 170.198207,351.840848 L170.198183,351.840858 Z M151.888743,359.061946 L151.888743,397.877863 L151.888743,359.061946 C151.888751,359.061902 151.888751,359.061902 151.888751,359.061902 L151.888743,359.061946 Z M133.579303,365.328948 L133.579303,397.877863 L133.579303,365.328948 C133.579303,365.328948 133.579303,365.328948 133.579303,365.328948 L133.579303,365.328948 Z M115.269864,370.695076 L115.269864,397.877863 L115.269864,370.695076 C115.269864,370.695076 115.269864,370.695076 115.269864,370.695076 L115.269864,370.695076 Z M96.960424,375.203227 L96.960424,397.877863 L96.960424,375.203227 C96.960424,375.203227 96.960424,375.203227 96.960424,375.203227 L96.960424,375.203227 Z M298.36426,265.883853 L298.36426,397.877863 L298.36426,265.883853 C298.36426,265.883853 298.36426,265.883853 298.36426,265.883853 Z" id="Shape" stroke="#50E3C2" stroke-linecap="square"></path>
                    <path d="M1179.12792,386.732824 L1179.12792,384.897863 C1397.87691,384.897863 1575.16225,230.008259 1575.16225,39.0076336 L1577,39.0076336 C1577,231.080227 1398.84134,386.732824 1179.12792,386.732824 Z" id="Path" fill="#979797" fill-rule="nonzero" transform="translate(1378.063958, 212.870229) scale(-1, 1) translate(-1378.063958, -212.870229) "></path>
                    <path d="M1478.92509,193.923664 C1478.92509,193.923664 1478.92509,193.923664 1478.92509,193.923664 L1478.92509,397.877863 L1478.92509,193.923664 Z M1460.61565,222.465326 L1460.61565,397.877863 L1460.61565,222.465326 C1460.61565,222.465326 1460.61565,222.465326 1460.61565,222.465326 L1460.61565,222.465326 Z M1442.30621,245.925796 C1442.30621,245.925796 1442.30621,245.925796 1442.30621,245.925796 L1442.30621,397.877863 L1442.30621,245.925796 Z M1405.68733,283.195668 L1405.68733,397.877863 L1405.68733,283.195668 C1405.68733,283.195668 1405.68733,283.195668 1405.68733,283.195668 Z M1387.37789,298.387033 C1387.37789,298.387033 1387.37789,298.387033 1387.37789,298.387033 L1387.37789,397.877863 L1387.37789,298.387033 Z M1369.06845,311.807774 L1369.06845,397.877863 L1369.06845,311.807774 C1369.06845,311.807774 1369.06845,311.807774 1369.06845,311.807774 Z M1350.75901,323.703976 L1350.75901,397.877863 L1350.75901,323.703976 C1350.75901,323.703976 1350.75901,323.703976 1350.75901,323.703976 Z M1332.44957,334.255929 L1332.44957,397.877863 L1332.44957,334.255929 C1332.44957,334.255929 1332.44957,334.255929 1332.44957,334.255929 L1332.44957,334.255929 Z M1314.14013,343.599803 C1314.14013,343.599803 1314.14013,343.599803 1314.14013,343.599803 L1314.14013,397.877863 L1314.14013,343.599803 L1314.14013,343.599803 Z M1295.83069,351.840858 L1295.83069,397.877863 L1295.83069,351.840858 C1295.83072,351.840848 1295.83072,351.840848 1295.83072,351.840848 L1295.83069,351.840858 Z M1277.52125,359.061946 L1277.52125,397.877863 L1277.52125,359.061946 C1277.52126,359.061902 1277.52126,359.061902 1277.52126,359.061902 L1277.52125,359.061946 Z M1259.21181,365.328948 L1259.21181,397.877863 L1259.21181,365.328948 C1259.21181,365.328948 1259.21181,365.328948 1259.21181,365.328948 L1259.21181,365.328948 Z M1240.90237,370.695076 L1240.90237,397.877863 L1240.90237,370.695076 C1240.90237,370.695076 1240.90237,370.695076 1240.90237,370.695076 L1240.90237,370.695076 Z M1222.59293,375.203227 L1222.59293,397.877863 L1222.59293,375.203227 C1222.59293,375.203227 1222.59293,375.203227 1222.59293,375.203227 L1222.59293,375.203227 Z M1423.99677,265.883853 L1423.99677,397.877863 L1423.99677,265.883853 C1423.99677,265.883853 1423.99677,265.883853 1423.99677,265.883853 Z" id="Shape" stroke="#979797" stroke-linecap="square" transform="translate(1350.759011, 295.900763) scale(-1, 1) translate(-1350.759011, -295.900763) "></path>
                    <path d="M1062.10671,193.923664 C1062.10671,193.923664 1062.10671,193.923664 1062.10671,193.923664 L1062.10671,397.877863 L1062.10671,193.923664 Z M1043.75482,222.465326 L1043.75482,397.877863 L1043.75482,222.465326 C1043.75482,222.465326 1043.75482,222.465326 1043.75482,222.465326 L1043.75482,222.465326 Z M1025.40292,245.925796 C1025.40292,245.925796 1025.40292,245.925796 1025.40292,245.925796 L1025.40292,397.877863 L1025.40292,245.925796 Z M988.699128,283.195668 L988.699128,397.877863 L988.699128,283.195668 C988.699128,283.195668 988.699128,283.195668 988.699128,283.195668 Z M970.347232,298.387033 C970.347232,298.387033 970.347232,298.387033 970.347232,298.387033 L970.347232,397.877863 L970.347232,298.387033 Z M951.995336,311.807774 L951.995336,397.877863 L951.995336,311.807774 C951.995336,311.807774 951.995336,311.807774 951.995336,311.807774 Z M933.643439,323.703976 L933.643439,397.877863 L933.643439,323.703976 C933.643439,323.703976 933.643439,323.703976 933.643439,323.703976 Z M915.291543,334.255929 L915.291543,397.877863 L915.291543,334.255929 C915.291543,334.255929 915.291543,334.255929 915.291543,334.255929 L915.291543,334.255929 Z M896.939647,343.599803 C896.939647,343.599803 896.939647,343.599803 896.939647,343.599803 L896.939647,397.877863 L896.939647,343.599803 L896.939647,343.599803 Z M878.58775,351.840858 L878.58775,397.877863 L878.58775,351.840858 C878.587774,351.840848 878.587774,351.840848 878.587774,351.840848 L878.58775,351.840858 Z M860.235854,359.061946 L860.235854,397.877863 L860.235854,359.061946 C860.235862,359.061902 860.235862,359.061902 860.235862,359.061902 L860.235854,359.061946 Z M841.883958,365.328948 L841.883958,397.877863 L841.883958,365.328948 C841.883958,365.328948 841.883958,365.328948 841.883958,365.328948 L841.883958,365.328948 Z M823.532061,370.695076 L823.532061,397.877863 L823.532061,370.695076 C823.532061,370.695076 823.532061,370.695076 823.532061,370.695076 L823.532061,370.695076 Z M805.180165,375.203227 L805.180165,397.877863 L805.180165,375.203227 C805.180165,375.203227 805.180165,375.203227 805.180165,375.203227 L805.180165,375.203227 Z M786.828269,375.203227 L786.828269,397.877863 L786.828269,375.203227 C786.828269,375.203227 786.828269,375.203227 786.828269,375.203227 L786.828269,375.203227 Z M1007.05102,265.883853 L1007.05102,397.877863 L1007.05102,265.883853 C1007.05102,265.883853 1007.05102,265.883853 1007.05102,265.883853 Z" id="Shape" stroke="#50E3C2" stroke-linecap="square"></path>
                    <path d="M768.996466,193.923664 C768.996466,193.923664 768.996466,193.923664 768.996466,193.923664 L768.996466,397.877863 L768.996466,193.923664 Z M750.687027,222.465326 L750.687027,397.877863 L750.687027,222.465326 C750.687027,222.465326 750.687027,222.465326 750.687027,222.465326 L750.687027,222.465326 Z M732.377587,245.925796 C732.377587,245.925796 732.377587,245.925796 732.377587,245.925796 L732.377587,397.877863 L732.377587,245.925796 Z M695.758708,283.195668 L695.758708,397.877863 L695.758708,283.195668 C695.758708,283.195668 695.758708,283.195668 695.758708,283.195668 Z M677.449268,298.387033 C677.449268,298.387033 677.449268,298.387033 677.449268,298.387033 L677.449268,397.877863 L677.449268,298.387033 Z M659.139828,311.807774 L659.139828,397.877863 L659.139828,311.807774 C659.139828,311.807774 659.139828,311.807774 659.139828,311.807774 Z M640.830389,323.703976 L640.830389,397.877863 L640.830389,323.703976 C640.830389,323.703976 640.830389,323.703976 640.830389,323.703976 Z M622.520949,334.255929 L622.520949,397.877863 L622.520949,334.255929 C622.520949,334.255929 622.520949,334.255929 622.520949,334.255929 L622.520949,334.255929 Z M604.211509,343.599803 C604.211509,343.599803 604.211509,343.599803 604.211509,343.599803 L604.211509,397.877863 L604.211509,343.599803 L604.211509,343.599803 Z M585.90207,351.840858 L585.90207,397.877863 L585.90207,351.840858 C585.902094,351.840848 585.902094,351.840848 585.902094,351.840848 L585.90207,351.840858 Z M567.59263,359.061946 L567.59263,397.877863 L567.59263,359.061946 C567.592638,359.061902 567.592638,359.061902 567.592638,359.061902 L567.59263,359.061946 Z M549.28319,365.328948 L549.28319,397.877863 L549.28319,365.328948 C549.28319,365.328948 549.28319,365.328948 549.28319,365.328948 L549.28319,365.328948 Z M530.973751,370.695076 L530.973751,397.877863 L530.973751,370.695076 C530.973751,370.695076 530.973751,370.695076 530.973751,370.695076 L530.973751,370.695076 Z M512.664311,375.203227 L512.664311,397.877863 L512.664311,375.203227 C512.664311,375.203227 512.664311,375.203227 512.664311,375.203227 L512.664311,375.203227 Z M714.068147,265.883853 L714.068147,397.877863 L714.068147,265.883853 C714.068147,265.883853 714.068147,265.883853 714.068147,265.883853 Z" id="Shape" stroke="#50E3C2" stroke-linecap="square" transform="translate(640.830389, 295.900763) scale(-1, 1) translate(-640.830389, -295.900763) "></path>
                </g>
                <path d="M471.333333,27.3689064 L475,27.3689064 L475,36.5133915 L478.666667,36.5133915 L478.666667,186.482948 L482.333333,186.482948 L482.333333,287.072284 L486,287.072284 L486,398.635002 L451.166667,398.635002 L451.166667,287.072284 L454.833333,287.072284 L454.833333,186.482948 L458.5,186.482948 L458.5,36.5133915 L460.333333,36.5133915 L460.333333,27.3689064 L465.833333,27.3689064 L465.833333,18.2244213 L467.666667,14.5666272 C467.520442,13.8111243 467.825998,13.8111243 468.583333,14.5666272 C469.340669,15.3221302 470.257336,16.5413949 471.333333,18.2244213 L471.333333,27.3689064 Z M491.5,426.068458 L491.5,435.212943 L486,435.212943 L486,523 L451.166667,523 L451.166667,435.212943 L445.666667,435.212943 L445.666667,426.068458 L440.166667,426.068458 L440.166667,405.95059 L497,405.95059 L497,426.068458 L491.5,426.068458 Z M396.166667,27.3689064 L399.833333,27.3689064 L399.833333,36.5133915 L403.5,36.5133915 L403.5,186.482948 L407.166667,186.482948 L407.166667,287.072284 L410.833333,287.072284 L410.833333,398.635002 L376,398.635002 L376,287.072284 L379.666667,287.072284 L379.666667,186.482948 L383.333333,186.482948 L383.333333,36.5133915 L385.166667,36.5133915 L385.166667,27.3689064 L390.666667,27.3689064 L390.666667,18.2244213 L392.5,14.5666272 C392.353776,13.8111243 392.659331,13.8111243 393.416667,14.5666272 C394.174002,15.3221302 395.090669,16.5413949 396.166667,18.2244213 L396.166667,27.3689064 Z M416.333333,426.068458 L416.333333,435.212943 L410.833333,435.212943 L410.833333,523 L376,523 L376,435.212943 L370.5,435.212943 L370.5,426.068458 L365,426.068458 L365,405.95059 L421.833333,405.95059 L421.833333,426.068458 L416.333333,426.068458 Z" id="Combined-Shape" fill="#1F3480"></path>
                <path d="M1110.16667,27.3689064 L1113.83333,27.3689064 L1113.83333,36.5133915 L1117.5,36.5133915 L1117.5,186.482948 L1121.16667,186.482948 L1121.16667,287.072284 L1124.83333,287.072284 L1124.83333,398.635002 L1090,398.635002 L1090,287.072284 L1093.66667,287.072284 L1093.66667,186.482948 L1097.33333,186.482948 L1097.33333,36.5133915 L1099.16667,36.5133915 L1099.16667,27.3689064 L1104.66667,27.3689064 L1104.66667,18.2244213 L1106.5,14.5666272 C1106.35378,13.8111243 1106.65933,13.8111243 1107.41667,14.5666272 C1108.174,15.3221302 1109.09067,16.5413949 1110.16667,18.2244213 L1110.16667,27.3689064 Z M1130.33333,426.068458 L1130.33333,435.212943 L1124.83333,435.212943 L1124.83333,523 L1090,523 L1090,435.212943 L1084.5,435.212943 L1084.5,426.068458 L1079,426.068458 L1079,405.95059 L1135.83333,405.95059 L1135.83333,426.068458 L1130.33333,426.068458 Z M1185.33333,27.3689064 L1189,27.3689064 L1189,36.5133915 L1192.66667,36.5133915 L1192.66667,186.482948 L1196.33333,186.482948 L1196.33333,287.072284 L1200,287.072284 L1200,398.635002 L1165.16667,398.635002 L1165.16667,287.072284 L1168.83333,287.072284 L1168.83333,186.482948 L1172.5,186.482948 L1172.5,36.5133915 L1174.33333,36.5133915 L1174.33333,27.3689064 L1179.83333,27.3689064 L1179.83333,18.2244213 L1181.66667,14.5666272 C1181.52044,13.8111243 1181.826,13.8111243 1182.58333,14.5666272 C1183.34067,15.3221302 1184.25734,16.5413949 1185.33333,18.2244213 L1185.33333,27.3689064 Z M1205.5,426.068458 L1205.5,435.212943 L1200,435.212943 L1200,523 L1165.16667,523 L1165.16667,435.212943 L1159.66667,435.212943 L1159.66667,426.068458 L1154.16667,426.068458 L1154.16667,405.95059 L1211,405.95059 L1211,426.068458 L1205.5,426.068458 Z" id="Combined-Shape" fill="#1F3480"></path>
            </g>
        </g>
    </g>
</svg>