<?xml version="1.0" encoding="UTF-8"?>
<svg width="177px" height="175px" viewBox="0 0 177 175" version="1.1" xmlns="http://www.w3.org/2000/svg" xmlns:xlink="http://www.w3.org/1999/xlink">
    <!-- Generator: Sketch 53.2 (72643) - https://sketchapp.com -->
    <title>dollar</title>
    <desc>Created with Sketch.</desc>
    <defs>
        <radialGradient cx="151.190673%" cy="50%" fx="151.190673%" fy="50%" r="115.958361%" gradientTransform="translate(1.511907,0.500000),scale(1.000000,0.622703),rotate(25.420382),translate(-1.511907,-0.500000)" id="radialGradient-1">
            <stop stop-color="#0095D2" offset="0%"></stop>
            <stop stop-color="#1C2D6B" offset="100%"></stop>
        </radialGradient>
    </defs>
    <g id="Page-1" stroke="none" stroke-width="1" fill="none" fill-rule="evenodd">
        <g id="Nextcloud-Website-Copy" transform="translate(-875.000000, -12752.000000)">
            <g id="dollar" transform="translate(964.820000, 12841.180000) rotate(-45.000000) translate(-964.820000, -12841.180000) translate(896.320000, 12739.180000)">
                <path d="M57.2,203.5 L57.2,184.8 C35.86,182.82 24.42,178.64 14.74,169.4 C6.16,161.04 2.2,152.24 6.25277607e-13,135.3 L25.96,131.34 C27.06,144.1 29.04,149.38 34.54,155.1 C40.04,160.82 46.86,163.68 57.2,164.56 L57.2,105.6 C37.62,101.2 30.8,98.78 22,93.28 C11,86.46 4.4,73.26 4.4,58.52 C4.4,42.68 11.66,29.04 24.64,20.68 C33.44,15.18 42.02,12.54 57.2,11.22 L57.2,0 L70.84,0 L70.84,11.44 C89.32,13.42 99,17.16 108.46,26.4 C116.6,34.1 119.9,40.92 122.76,54.78 L97.68,59.18 C96.14,49.5 93.94,44.88 88.88,39.82 C83.82,34.98 79.2,33 70.84,31.68 L70.84,84.7 C92.18,89.32 101.64,92.84 109.78,99 C121.44,107.8 126.72,118.8 126.72,134.64 C126.72,152.68 119.46,166.76 105.6,175.34 C96.58,181.06 87.12,183.7 70.84,185.02 L70.84,203.5 L57.2,203.5 Z M57.2,82.28 L57.2,31.68 C48.18,32.56 43.34,34.1 38.28,37.62 C32.34,41.8 28.82,49.28 28.82,57.2 C28.82,70.62 37.18,78.32 57.2,82.28 Z M70.84,108.24 L70.84,164.78 C80.3,163.68 85.36,161.92 91.08,157.74 C97.46,152.9 101.2,144.76 101.2,135.3 C101.2,126.94 98.12,120.34 92.4,115.94 C88.44,112.86 85.58,111.76 70.84,108.24 Z" id="$" fill="#50E3C2" fill-rule="nonzero"></path>
                <path d="M67.2,203.5 L67.2,184.8 C45.86,182.82 34.42,178.64 24.74,169.4 C16.16,161.04 12.2,152.24 10,135.3 L35.96,131.34 C37.06,144.1 39.04,149.38 44.54,155.1 C50.04,160.82 56.86,163.68 67.2,164.56 L67.2,105.6 C47.62,101.2 40.8,98.78 32,93.28 C21,86.46 14.4,73.26 14.4,58.52 C14.4,42.68 21.66,29.04 34.64,20.68 C43.44,15.18 52.02,12.54 67.2,11.22 L67.2,0 L80.84,0 L80.84,11.44 C99.32,13.42 109,17.16 118.46,26.4 C126.6,34.1 129.9,40.92 132.76,54.78 L107.68,59.18 C106.14,49.5 103.94,44.88 98.88,39.82 C93.82,34.98 89.2,33 80.84,31.68 L80.84,84.7 C102.18,89.32 111.64,92.84 119.78,99 C131.44,107.8 136.72,118.8 136.72,134.64 C136.72,152.68 129.46,166.76 115.6,175.34 C106.58,181.06 97.12,183.7 80.84,185.02 L80.84,203.5 L67.2,203.5 Z M67.2,82.28 L67.2,31.68 C58.18,32.56 53.34,34.1 48.28,37.62 C42.34,41.8 38.82,49.28 38.82,57.2 C38.82,70.62 47.18,78.32 67.2,82.28 Z M80.84,108.24 L80.84,164.78 C90.3,163.68 95.36,161.92 101.08,157.74 C107.46,152.9 111.2,144.76 111.2,135.3 C111.2,126.94 108.12,120.34 102.4,115.94 C98.44,112.86 95.58,111.76 80.84,108.24 Z" id="$" fill="url(#radialGradient-1)"></path>
            </g>
        </g>
    </g>
</svg>