<?xml version="1.0" encoding="UTF-8"?>
<svg width="1434px" height="831px" viewBox="0 0 1434 831" version="1.1" xmlns="http://www.w3.org/2000/svg" xmlns:xlink="http://www.w3.org/1999/xlink">
    <!-- Generator: Sketch 53.2 (72643) - https://sketchapp.com -->
    <title>Combined Shape</title>
    <desc>Created with Sketch.</desc>
    <g id="Page-1" stroke="none" stroke-width="1" fill="none" fill-rule="evenodd">
        <g id="Nextcloud-Website" transform="translate(-1503.000000, -5681.000000)" fill="#FFFFFF">
            <polygon id="Combined-Shape" transform="translate(2220.000000, 6096.250000) scale(1, -1) translate(-2220.000000, -6096.250000) " points="2937 5681 2937 5929.35842 2935.19431 5931.78895 2934.71292 5935.99672 2934.23152 5934.98692 2933.75031 5926.88926 2932.30631 5924.65366 2931.82492 5932.57747 2931.34353 5932.33336 2930.86214 5937.34018 2928.93676 5946.81468 2928.45554 5950.07763 2927.97415 5946.79712 2927.49276 5944.11721 2927.01154 5941.9062 2925.56737 5937.88635 2925.08616 5940.58732 2924.60477 5948.26176 2924.12338 5946.76726 2923.64216 5957.82406 2922.19799 5961.55591 2921.99753 5960.80603 2921.51614 5956.09424 2921.03475 5964.76266 2920.55353 5965.47039 2919.10936 5961.6121 2918.62815 5963.10835 2918.14676 5954.65419 2917.66537 5964.72402 2915.73998 5964.14273 2915.25876 5968.55773 2914.77737 5969.91349 2914.29598 5973.15536 2913.81459 5976.26553 2912.3706 5982.74752 2911.88938 5981.98008 2911.40799 5987.10632 2910.9266 5980.97731 2910.44521 5987.26788 2909.00121 5984.91287 2908.51982 5971.78204 2908.03861 5967.93956 2907.35658 5971.2991 2905.91258 5971.54496 2905.43137 5968.31538 2904.94998 5965.0577 2903.9872 5964.71876 2902.5432 5963.78975 2902.06181 5968.61041 2901.5806 5970.83196 2901.09921 5973.76651 2900.61782 5965.43878 2899.17382 5964.42723 2898.69243 5970.51409 2898.21121 5975.36813 2897.72982 5975.79839 2897.24843 5975.40149 2895.80444 5981.72544 2895.32305 5981.99588 2894.84183 5970.59488 2894.36044 5959.59427 2893.87905 5959.14996 2892.23442 5961.63669 2891.7532 5956.2523 2891.27181 5960.2862 2890.79042 5962.04061 2890.30903 5959.04459 2888.86503 5952.78914 2887.90243 5951.85662 2887.42104 5961.14145 2886.93965 5958.68458 2885.49565 5957.10403 2885.01426 5954.97557 2884.53305 5958.32808 2884.05166 5951.48256 2883.57027 5943.54119 2882.12627 5943.27425 2881.64488 5948.70958 2881.16366 5942.62623 2880.68227 5936.6342 2880.20088 5933.36247 2878.75689 5928.63488 2878.2755 5922.33904 2878.07503 5919.63455 2877.59364 5918.26123 2877.11225 5932.50722 2875.66826 5932.57044 2875.18687 5922.86062 2874.70565 5922.69027 2874.22426 5924.97679 2873.74287 5915.41273 2872.29887 5911.62118 2871.81748 5912.35877 2871.33627 5930.66676 2870.85488 5922.20381 2870.37349 5918.5668 2868.92949 5919.65035 2868.4481 5912.5098 2867.96689 5897.4788 2867.4855 5904.52979 2867.00411 5900.81024 2865.56011 5901.41963 2865.07872 5904.26461 2864.59733 5882.60586 2864.11611 5882.5602 2863.63472 5884.74486 2861.99009 5881.42747 2861.50887 5878.65976 2861.02748 5888.83848 2860.54609 5887.21579 2860.0647 5879.12866 2858.62071 5867.94541 2858.13932 5885.35777 2857.6581 5896.87468 2857.17671 5902.36269 2856.69532 5906.23678 2853.32594 5916.76498 2851.88194 5920.31945 2851.40055 5927.72695 2850.91934 5933.9701 2850.43795 5939.33342 2848.79331 5936.16706 2848.31192 5941.95011 2847.83071 5952.17975 2847.34932 5958.71795 2846.86793 5958.72322 2845.42393 5950.05129 2844.94254 5949.03271 2844.46132 5948.01941 2843.97993 5953.58468 2843.49854 5950.57287 2842.05455 5955.68857 2841.57316 5956.47533 2841.09177 5967.76745 2840.61055 5972.44412 2840.12916 5967.56374 2838.68517 5966.56273 2838.20377 5967.46539 2837.72238 5976.82047 2837.24117 5978.76806 2836.75978 5982.45951 2835.31578 5987.95454 2834.83439 5990.30253 2834.353 5983.10929 2834.15254 5978.26404 2833.67115 5980.04479 2832.22715 5977.6687 2831.74576 5970.54746 2831.26437 5967.50052 2830.78316 5970.60717 2830.30177 5981.75353 2828.85777 5976.72915 2828.37638 5981.4866 2827.89499 5980.21689 2827.41377 5977.12253 2826.93238 5987.84566 2825.48839 5986.03506 2825.007 5979.88849 2824.52561 5966.10261 2824.04439 5981.71314 2823.563 5975.98103 2822.11901 5984.71969 2821.63762 5995.636 2820.67483 5998.13151 2820.19362 6001.58412 2818.54899 5996.86531 2818.0676 5991.06822 2817.58638 5986.04735 2817.10499 5978.0691 2816.6236 5983.5975 2815.1796 5984.94273 2814.69821 5978.67322 2814.21682 5969.50781 2813.73561 5982.13989 2813.25422 5980.2608 2811.81022 5977.18049 2811.32883 5991.7461 2810.84744 6004.89625 2810.36622 5997.50983 2809.88483 6010.12785 2808.44084 6020.37331 2807.95945 6010.58797 2807.47806 6016.17783 2806.99684 6003.43687 2806.51545 6002.97852 2805.07146 5997.08132 2804.87082 5990.30429 2804.38943 5998.10516 2803.90821 6016.18837 2801.98283 6023.4343 2801.50144 6017.96561 2801.02005 6026.69549 2800.53883 6030.10772 2800.05744 6009.43241 2798.61344 6006.11502 2798.13205 6003.91104 2797.65066 5985.92618 2797.16927 5989.32962 2796.68806 5992.55745 2795.24406 5997.01459 2794.76267 6008.39101 2794.28128 6002.55704 2793.79989 6010.76007 2793.31867 6008.1311 2791.87468 5992.0745 2791.39329 6006.20459 2790.9119 6010.09976 2790.43051 5994.46815 2789.74865 5993.91847 2788.30466 5986.3898 2787.82327 5989.16454 2787.34188 5976.41129 2786.86066 5983.76961 2786.37927 5994.84046 2784.93528 6004.24295 2784.45389 5991.77069 2783.9725 5974.94313 2783.49128 5951.6371 2783.00989 5962.58677 2781.0845 5953.18955 2780.60311 5961.74908 2780.1219 5933.95781 2779.64051 5928.33458 2778.19651 5931.22347 2777.71512 5923.10999 2777.23373 5915.81489 2776.75234 5931.58699 2776.27113 5945.11647 2775.10788 5944.27351 2774.62649 5945.68195 2774.1451 5960.93598 2773.66389 5960.47938 2773.1825 5966.6277 2771.7385 5963.32612 2771.25711 5946.8937 2770.77572 5949.94943 2770.29433 5967.81136 2769.81311 5956.74753 2768.36912 5959.05338 2767.88773 5978.23243 2767.40634 5965.02082 2766.92495 5965.0454 2766.44373 5974.34955 2764.99956 5995.85025 2764.51834 6011.16223 2764.03695 6016.41843 2763.55556 6009.93292 2763.07435 5999.12374 2761.63018 5993.58831 2761.14896 5996.23485 2759.50433 6013.37149 2759.02294 6024.39316 2758.54155 6024.61093 2757.09755 6012.91313 2756.61634 6021.84497 2756.13495 6023.54142 2755.65355 6051.25016 2753.72817 6052.13351 2753.24678 6068.29547 2752.76556 6050.91824 2752.28417 6063.76633 2751.80278 6054.60092 2750.35879 6069.28068 2749.8774 6083.95166 2749.39618 6082.2236 2748.91479 6086.78435 2748.4334 6086.38746 2746.9894 6111.54976 2746.50801 6109.55476 2746.30755 6122.99643 2745.82616 6122.45202 2745.34477 6107.04696 2743.90077 6097.93247 2743.41938 6120.93118 2742.93817 6123.4583 2742.45678 6107.39292 2741.97539 6107.36482 2740.53139 6121.28417 2740.05 6096.41339 2739.56879 6098.83514 2739.0874 6084.95443 2737.16201 6086.37166 2736.68062 6061.08818 2736.1994 6043.02078 2735.71801 6048.63699 2735.23662 6042.32007 2733.79263 6074.70195 2733.31124 6078.36355 2732.82985 6018.75939 2732.34863 6057.32473 2730.704 6071.11411 2730.22261 6065.00618 2729.74139 6056.82773 2729.26 6065.07467 2727.33461 6043.89184 2726.85322 6028.53244 2726.37183 6046.22578 2725.89062 6082.42029 2725.40923 6096.76111 2723.96523 6094.99441 2723.48384 6118.14415 2723.00245 6149.06842 2722.52124 6148.62762 2722.03985 6138.53671 2720.59585 6124.72098 2720.11446 6105.46641 2719.63307 6128.39838 2719.15185 6097.46358 2718.67046 6090.41083 2717.22647 6087.1672 2716.54444 6079.25568 2716.06322 6105.44709 2715.58183 6127.49572 2715.10044 6146.14616 2713.65645 6118.671 2712.69384 6119.48937 2712.21245 6130.70949 2711.73106 6139.67997 2710.28706 6157.47693 2709.80567 6171.06084 2709.32428 6173.83734 2708.84307 6161.93055 2708.36168 6141.95947 2706.91768 6171.11528 2706.43629 6180.38607 2705.9549 6224.53424 2705.47369 6219.79085 2704.9923 6232.09628 2703.5483 6228.22745 2703.06691 6217.68345 2702.58552 6205.25509 2702.38506 6188.91048 2701.90367 6192.50008 2700.45967 6205.98916 2699.97828 6192.76701 2699.49689 6210.65177 2699.01567 6236.67986 2698.53428 6234.56017 2697.09029 6220.43711 2696.6089 6207.66805 2696.12751 6168.45294 2695.64629 6208.57248 2695.1649 6205.0742 2693.7209 6159.25065 2693.23951 6192.03996 2692.75812 6176.42241 2692.27691 6207.07798 2691.79552 6211.51405 2690.35152 6233.56267 2689.87013 6237.47189 2689.38874 6227.04731 2688.90735 6259.41866 2688.42614 6275.14509 2686.7815 6281.25478 2686.30011 6261.87904 2685.8189 6279.7357 2685.33751 6283.60453 2684.85612 6299.38892 2683.41212 6257.8785 2682.93073 6301.50861 2682.44934 6301.24167 2681.96812 6284.19987 2681.48673 6296.94785 2680.04274 6308.61931 2679.56135 6318.80681 2679.07996 6289.27166 2678.59874 6312.18959 2678.11735 6318.46611 2676.67336 6339.68056 2676.19196 6333.54453 2675.71057 6349.31838 2675.22936 6361.45346 2673.30397 6369.56869 2673.10333 6347.62368 2672.62194 6338.72169 2672.14073 6338.31953 2671.65934 6333.92386 2670.21534 6334.03976 2669.73395 6328.97323 2669.25256 6313.96156 2668.77135 6320.04666 2668.28996 6319.35649 2666.84596 6318.0341 2666.36457 6300.50408 2665.88318 6303.96372 2665.40179 6298.38791 2664.92057 6290.98744 2663.47658 6279.91132 2662.99519 6297.81715 2662.5138 6310.40533 2662.03241 6299.09739 2661.55119 6293.56724 2660.1072 6292.32563 2659.62581 6247.08161 2659.14441 6269.81338 2658.66302 6283.30598 2658.46256 6271.27275 2657.01857 6299.84025 2656.53718 6314.42343 2656.05578 6324.94108 2655.57439 6327.9933 2655.09318 6344.54337 2653.64918 6352.33195 2653.16779 6344.01301 2652.6864 6352.39693 2652.20501 6366.29169 2651.7238 6368.05839 2650.27963 6364.23874 2649.79841 6347.90818 2649.31702 6329.60545 2648.83563 6320.09232 2648.35441 6324.16662 2646.91024 6321.49022 2646.42903 6302.96798 2645.94764 6316.46409 2644.98486 6316.60985 2643.3404 6305.88321 2642.85901 6307.77635 2642.37762 6303.82147 2641.8964 6308.49813 2641.41501 6305.02971 2639.97102 6316.51502 2639.48963 6338.23524 2639.00823 6319.20546 2638.52684 6325.8297 2638.04563 6293.43904 2636.60163 6303.69854 2636.12024 6290.5484 2635.63885 6303.34204 2635.15746 6280.31348 2634.67625 6306.32927 2633.23208 6306.4522 2632.75086 6305.27382 2632.26947 6284.28943 2631.78808 6294.72631 2631.30686 6285.4643 2629.86269 6277.68626 2629.38148 6232.55288 2629.18084 6224.87845 2628.69945 6199.99187 2626.77406 6187.47745 2626.29285 6203.85016 2625.81146 6176.91589 2625.33007 6210.54992 2624.84885 6218.32796 2623.40468 6234.07723 2622.92347 6265.61967 2622.44208 6263.74057 2621.96068 6268.19244 2621.47929 6243.31113 2620.0353 6245.59941 2619.55408 6228.70864 2619.07269 6241.87283 2618.5913 6273.45391 2618.10991 6282.8687 2616.66592 6271.59764 2616.1847 6276.68876 2615.70331 6282.31375 2615.22192 6312.62863 2614.74053 6313.02552 2613.09607 6295.53941 2612.61468 6240.83845 2612.13329 6277.69328 2611.6519 6253.76381 2611.17068 6231.62914 2609.2453 6278.76279 2608.76391 6295.89767 2608.28252 6254.36442 2607.8013 6190.57884 2606.35713 6254.59096 2605.87592 6297.11117 2605.39453 6334.12406 2604.91313 6341.9021 2604.43192 6408.7399 2602.98775 6387.47804 2602.50653 6372.14147 2602.02514 6329.83551 2601.54375 6375.06548 2601.06236 6412.19778 2599.89912 6421.91287 2599.4179 6420.1971 2598.93651 6476.32055 2598.45512 6490.1995 2597.97391 6499.92338 2596.52974 6498.53952 2596.04852 6478.80552 2595.56713 6457.09408 2595.08574 6428.81635 2594.60435 6467.91204 2593.16035 6448.57494 2592.67914 6440.91982 2592.19775 6458.48145 2591.71636 6500.43091 2591.23497 6479.65901 2589.79097 6511.5 2589.30958 6485.63875 2588.82837 6487.00504 2588.34698 6499.49312 2587.86558 6489.60241 2586.42159 6473.86017 2585.9402 6468.73217 2585.45898 6453.98216 2584.29574 6438.84755 2583.81435 6426.27869 2582.37035 6433.96366 2581.88896 6427.82763 2581.40757 6396.74179 2580.92636 6401.29904 2579.00097 6424.28545 2578.51958 6410.11146 2578.03819 6400.30856 2577.5568 6398.25912 2577.07558 6401.57124 2575.63159 6411.22136 2575.1502 6393.80549 2574.66881 6406.10214 2574.18742 6390.26682 2573.7062 6373.41117 2572.26221 6367.81253 2571.78082 6348.93378 2571.29943 6335.65368 2570.81804 6318.45031 2570.61757 6303.1313 2569.17358 6327.0678 2568.69219 6346.44881 2568.2108 6355.97072 2567.72941 6347.19518 2567.24819 6376.2825 2565.80419 6366.84664 2565.3228 6361.29892 2564.84141 6345.70595 2564.36002 6335.76256 2562.43464 6333.31622 2561.95342 6310.38425 2561.47203 6316.67307 2560.99064 6330.79789 2560.50943 6325.67867 2559.06525 6274.54975 2558.58404 6296.21202 2558.10265 6299.70854 2557.62126 6328.79937 2557.13987 6357.98504 2555.97662 6335.29542 2555.49541 6339.166 2555.01402 6323.62572 2554.53263 6321.40242 2554.05141 6325.62072 2552.12603 6319.39688 2551.64464 6313.95804 2551.16325 6289.85647 2550.68186 6287.01324 2549.23786 6288.79926 2548.75664 6267.19846 2548.27525 6245.68546 2547.79386 6267.19494 2547.31247 6259.373 2545.86848 6260.93247 2545.38709 6262.69214 2544.90587 6253.07715 2544.42448 6250.35159 2543.94309 6242.96517 2542.49909 6238.76091 2542.0177 6214.97369 2541.53649 6209.57349 2540.85446 6224.23921 2540.37325 6230.12586 2538.92907 6229.60077 2537.96647 6211.428 2537.48508 6221.44164 2537.00386 6219.75221 2535.55969 6211.4438 2535.07848 6202.61733 2534.59709 6203.91513 2534.1157 6192.33149 2533.63431 6190.10818 2532.19031 6188.47847 2531.70909 6182.40741 2531.2277 6171.81424 2530.74631 6180.05064 2530.26492 6162.32218 2528.82093 6167.25524 2528.33971 6161.45112 2527.85832 6153.4518 2527.37693 6146.93644 2526.89554 6144.56562 2525.7323 6135.51084 2525.25108 6120.3095 2524.76969 6116.64439 2524.2883 6123.67782 2523.80691 6116.88147 2522.36291 6119.32956 2521.8817 6101.8575 2521.40031 6104.99752 2520.91892 6101.47641 2520.43753 6101.60461 2518.99353 6105.43305 2518.51214 6117.3609 2518.03093 6120.68356 2517.54954 6135.8691 2517.06815 6130.48119 2515.62415 6125.38657 2515.14276 6127.67485 2514.66154 6118.51646 2514.18015 6113.8398 2513.69876 6106.03717 2512.25477 6102.0858 2511.57291 6104.77448 2511.09152 6106.86432 2510.61013 6106.1601 2510.12892 6111.28458 2508.68475 6101.94355 2508.20353 6128.57927 2507.72214 6120.18481 2507.24075 6125.7097 2506.75936 6128.16306 2505.31536 6119.08897 2504.83415 6118.20737 2504.35276 6129.86654 2503.87137 6122.19211 2503.38998 6128.5582 2501.94598 6128.72503 2501.46459 6119.21892 2500.98338 6118.76583 2500.50199 6121.59325 2498.5766 6113.43412 2498.09521 6099.82211 2497.61399 6106.1759 2497.41336 6100.01704 2496.93197 6108.19549 2495.48797 6113.22514 2495.00658 6116.02622 2494.52536 6109.77428 2494.04397 6098.53133 2493.56258 6091.84035 2492.11859 6085.57963 2491.6372 6086.05203 2491.15598 6091.91586 2490.67459 6092.50242 2490.1932 6087.26905 2488.74921 6077.69797 2488.26781 6073.66582 2487.7866 6067.5772 2487.30521 6064.17025 2486.82382 6072.75964 2485.37982 6070.99996 2484.89843 6068.75383 2484.41722 6077.70324 2483.93583 6087.82049 2483.45444 6086.15214 2482.29119 6089.58016 2481.8098 6090.65669 2481.32859 6094.18307 2480.8472 6089.65568 2480.36581 6089.31147 2478.92181 6097.13693 2478.44042 6105.59988 2477.95921 6104.50755 2477.47781 6115.66621 2476.99642 6127.65026 2475.55243 6123.59528 2475.07104 6119.57191 2474.58965 6113.95395 2474.10843 6109.07181 2473.62704 6115.43966 2472.18305 6111.97299 2471.70166 6104.79731 2471.22026 6104.41974 2470.73905 6107.52463 2468.81366 6099.25135 2468.33227 6095.74956 2467.65042 6086.41205 2467.16903 6079.94761 2466.68764 6073.8871 2465.24364 6074.68264 2464.76225 6078.8465 2464.28104 6074.05042 2463.79965 6082.64508 2463.31826 6075.59584 2461.87426 6066.21969 2461.39287 6061.92412 2460.91166 6055.71784 2460.43027 6044.91041 2459.94887 6053.64908 2458.50488 6061.08818 2458.02349 6062.60726 2457.5421 6061.00564 2457.06088 6066.44799 2456.57949 6060.25225 2455.1355 6047.71852 2454.65411 6051.45739 2454.17272 6046.289 2453.6915 6056.15688 2452.04687 6049.18842 2451.56548 6048.00653 2451.08409 6045.68137 2450.60287 6053.89494 2450.12148 6067.00821 2448.67748 6070.89284 2448.19609 6076.87082 2447.7147 6073.88183 2447.23349 6074.08379 2446.7521 6064.89379 2445.3081 6070.5258 2444.82671 6083.24217 2444.34532 6076.71452 2443.86411 6071.17382 2443.38272 6064.82003 2441.93872 6061.78011 2441.45733 6067.55437 2440.97594 6061.53776 2440.49472 6068.15147 2440.01333 6069.99895 2438.3687 6073.43049 2437.88731 6069.75309 2437.40609 6079.62272 2436.9247 6091.99313 2436.44331 6082.42556 2434.99932 6073.07926 2434.51793 6070.84191 2434.03671 6049.37458 2433.55532 6036.44395 2433.07393 6062.16295 2431.62993 6066.86947 2431.14854 6068.04259 2430.66715 6083.20354 2430.18594 6084.13957 2429.70455 6067.305 2428.26055 6075.03036 2427.77916 6071.24934 2427.29777 6078.50756 2426.81656 6071.60584 2426.33517 6066.07393 2424.40978 6060.64563 2424.20914 6063.32729 2423.72793 6060.48757 2423.24654 6051.78052 2421.80254 6048.70021 2421.32115 6044.25185 2420.83976 6031.41606 2420.35854 6042.20065 2419.87715 6049.28677 2418.43316 6058.41881 2417.95177 6048.75465 2417.47038 6051.36431 2416.98916 6050.97093 2416.50777 6042.99093 2415.06377 6046.3171 2414.58238 6047.65881 2414.10099 6045.5479 2413.6196 6043.68988 2413.13839 6036.80572 2411.69439 6031.93413 2411.213 6024.3317 2410.73161 6022.1804 2410.25022 6027.37513 2409.76901 6024.42653 2407.16159 6030.33777 2406.68038 6031.90076 2406.19899 6042.50096 2405.71759 6037.39579 2405.23638 6025.56804 2403.79221 6022.63173 2403.31099 6021.30056 2402.8296 6022.80208 2402.34821 6037.49062 2400.42283 6040.08448 2399.94161 6033.59194 2399.46022 6027.48577 2398.97883 6044.99471 2398.49744 6045.23355 2397.05344 6047.80106 2396.57223 6061.24624 2396.09084 6053.64908 2395.60945 6063.99112 2395.12806 6065.79294 2393.96481 6059.45319 2393.4836 6051.76823 2393.00221 6054.00382 2392.52082 6042.36398 2392.03943 6037.88752 2390.59543 6028.37965 2390.11422 6044.91919 2389.63283 6053.33297 2389.15144 6042.70818 2387.22605 6025.38715 2386.74466 6033.29164 2386.26344 6013.0905 2385.78205 6043.581 2385.30066 6039.72973 2383.85667 6037.94371 2383.37528 6025.5575 2382.89406 6024.3036 2382.41267 6010.5388 2381.93128 6010.50192 2380.28665 6003.8004 2379.80543 6005.90077 2379.32404 6006.44342 2378.84265 6005.35636 2376.91726 6004.13758 2376.43605 6000.27051 2375.95466 5999.38189 2375.47327 5992.88761 2374.02927 5984.19987 2373.54788 5976.65013 2373.06667 5978.14989 2372.58528 5971.40447 2372.10389 5976.41304 2370.65989 5976.3147 2370.1785 5983.11456 2369.69711 5981.98535 2369.21589 5981.53577 2368.7345 5975.80717 2367.29051 5971.31315 2366.80912 5973.22736 2366.32773 5973.34503 2365.84651 5961.49971 2365.16448 5978.2096 2363.72049 5973.16063 2362.75788 5969.42527 2362.27649 5969.29707 2361.7951 5963.1347 2360.3511 5962.75361 2359.86971 5957.19536 2359.3885 5952.67499 2358.90711 5949.04676 2358.42572 5950.95044 2356.98172 5946.60043 2356.50033 5948.28107 2356.01912 5954.42413 2355.53773 5949.33301 2355.05634 5949.05554 2353.61234 5945.04271 2353.13095 5941.15983 2352.64973 5940.31512 2352.16834 5938.6292 2351.68695 5936.07047 2350.52371 5933.43447 2350.04232 5927.50918 2349.5611 5923.17497 2349.07971 5928.54181 2348.59832 5922.45495 2347.15433 5921.22739 2346.67294 5916.45765 2346.19172 5913.94985 2345.71033 5914.66636 2345.22894 5906.99369 2343.78495 5908.24056 2343.30355 5893.58714 2342.82216 5886.62923 2342.34095 5893.46948 2341.85956 5891.24969 2340.41556 5876.99843 2339.93417 5872.36216 2339.45278 5887.05071 2338.97157 5898.62733 2338.49018 5902.25732 2337.04618 5905.46758 2336.56479 5914.92452 2335.88294 5924.30418 2335.40155 5929.34262 2334.92016 5931.53782 2333.47616 5922.33377 2332.99477 5930.71067 2332.51355 5923.41908 2332.03216 5920.2334 2331.55077 5909.09582 2330.10678 5914.0078 2329.62539 5911.91973 2329.14417 5918.56505 2328.66278 5914.1079 2328.18139 5914.39943 2326.7374 5903.77289 2326.256 5908.11763 2325.77461 5914.08156 2325.2934 5897.92838 2323.36801 5901.40734 2322.88662 5898.96803 2322.40523 5902.05536 2321.92402 5887.82869 2321.72338 5912.01807 2320.27938 5919.62577 2319.79799 5928.76835 2319.3166 5934.87628 2318.83539 5940.18165 2318.354 5939.59334 2316.91 5941.82542 2316.42861 5945.09891 2315.94722 5951.64237 2315.466 5943.65183 2314.98461 5936.28121 2313.54062 5941.69546 2313.05923 5942.53667 2312.57784 5940.62947 2312.09662 5939.22454 2311.61523 5947.22211 2310.17124 5946.39144 2309.68985 5935.04663 2309.20845 5937.20144 2308.72724 5950.13031 2308.24585 5951.17523 2307.08261 5960.02102 2306.60122 5955.97131 2306.11982 5957.94524 2305.63861 5962.08276 2305.15722 5959.35719 2303.71322 5964.89788 2303.23183 5968.93179 2302.75044 5968.62797 2302.26923 5977.29639 2301.78784 5976.42182 2300.34384 5975.03446 2299.86245 5974.21257 2299.38106 5969.58684 2298.89967 5969.25844 2298.41845 5964.97867 2296.97446 5963.3349 2296.49307 5962.73605 2296.01168 5958.14544 2295.53029 5958.64595 2295.04907 5956.2523 2293.12369 5958.02953 2292.6423 5957.2375 2291.96044 5953.46 2291.47905 5953.08418 2290.03506 5950.40779 2289.55367 5954.09222 2289.07227 5949.18023 2288.59106 5941.25642 2288.10967 5935.86852 2286.66567 5936.05643 2286.18428 5934.77794 2285.70289 5932.29121 2285.22168 5926.41685 2284.74029 5926.03576 2283.29629 5929.88 2282.8149 5934.8236 2282.33351 5937.39462 2281.85212 5936.76416 2281.3709 5936.02833 2279.92691 5934.17206 2279.44552 5930.73525 2278.96413 5933.87176 2278.48274 5931.54133 2278.00152 5933.72775 2276.83828 5938.98922 2276.35689 5935.90188 2275.8755 5931.84163 2275.39411 5941.30735 2273.4689 5940.83143 2272.98751 5944.98827 2272.50612 5947.74018 2272.02472 5946.0648 2271.54351 5945.69776 2270.09934 5951.11201 2269.61812 5949.07662 2269.13673 5951.19806 2268.65534 5947.2625 2268.17413 5951.22616 2266.72996 5944.58084 2266.24874 5949.18901 2265.76735 5951.67925 2265.28596 5952.32376 2264.80475 5953.00164 2263.36057 5951.54227 2262.67872 5950.89424 2262.19733 5945.45892 2261.71612 5946.3932 2261.23472 5951.04176 2259.79073 5952.72943 2259.30934 5958.80049 2258.82795 5957.80299 2258.34673 5955.61305 2257.86534 5951.05054 2256.42135 5948.50235 2255.93996 5948.98881 2255.45857 5948.21961 2254.97718 5943.39192 2254.49596 5943.15835 2252.57057 5941.47946 2252.08918 5939.1262 2251.60779 5943.06527 2251.12658 5949.33477 2249.68241 5949.00286 2249.20119 5947.35382 2248.7198 5945.63102 2248.51916 5943.05473 2248.03795 5943.10917 2246.59395 5945.44838 2246.11256 5942.83697 2245.63117 5945.53795 2245.14978 5938.37632 2244.66857 5936.28824 2243.22439 5939.50728 2242.74318 5937.09607 2242.26179 5934.14396 2241.7804 5936.81333 2241.29918 5935.31532 2239.85501 5934.54261 2239.3738 5932.55815 2238.89241 5931.20942 2238.41102 5928.67176 2237.92963 5929.78868 2236.48563 5925.33681 2236.00441 5923.93188 2235.52302 5930.23475 2235.04163 5929.96781 2234.56024 5935.19415 2231.953 5935.07122 2231.47161 5933.085 2230.9904 5929.5955 2230.50901 5931.16024 2230.02762 5929.13363 2228.58362 5926.96126 2228.10223 5925.56687 2227.62102 5921.85961 2227.13963 5925.06109 2225.21424 5923.02043 2224.73285 5921.87717 2224.25163 5922.94843 2223.77024 5920.01564 2223.28885 5921.35559 2221.84486 5917.06879 2221.36347 5920.00334 2220.88225 5914.95262 2220.40086 5913.33168 2219.91947 5910.8432 2218.75623 5908.11588 2218.27484 5905.40261 2217.79362 5901.43543 2217.31223 5897.17498 2216.83084 5900.00241 2215.38684 5900.73824 2214.90545 5899.92338 2214.42424 5900.89278 2213.94285 5898.15317 2212.01746 5896.37769 2211.53607 5894.29312 2211.05468 5894.99207 2210.57347 5889.69197 2210.09208 5883.08705 2208.64808 5896.00011 2208.16669 5896.06509 2207.6853 5899.24374 2207.20408 5901.71291 2206.72269 5901.30899 2205.2787 5899.25955 2204.59667 5897.81423 2204.11545 5893.19201 2203.63406 5890.07306 2202.19007 5886.44834 2201.22729 5889.17215 2200.74607 5891.79586 2200.26468 5892.1225 2198.82068 5887.45111 2198.33929 5894.79363 2197.8579 5897.40329 2197.37669 5893.49055 2196.8953 5893.34304 2195.4513 5897.49636 2194.96991 5899.86543 2194.48852 5905.89433 2194.00713 5910.30054 2193.52592 5910.72554 2192.08192 5905.21821 2191.60053 5907.6224 2191.11914 5904.50872 2190.63775 5908.28271 2190.15653 5905.31129 2188.5119 5903.07745 2187.54912 5902.6788 2187.0679 5902.63138 2186.58651 5906.08048 2185.14252 5910.23205 2184.66113 5905.15323 2184.17974 5903.15647 2183.69852 5906.3843 2183.21713 5904.15046 2181.77313 5897.78086 2181.29174 5895.8684 2180.81035 5901.14918 2180.32914 5902.83334 2179.84775 5905.52378 2178.40375 5903.32858 2177.92236 5910.50601 2177.44097 5910.82212 2176.95976 5908.5918 2176.47837 5905.49744 2175.31512 5902.77539 2174.83373 5899.04705 2174.35234 5906.37025 2173.87113 5883.56297 2173.38974 5912.75039 2171.94574 5918.9233 2171.46435 5922.78862 2170.98296 5924.26555 2170.50174 5921.32749 2170.02035 5917.00733 2168.57636 5921.30993 2168.09497 5926.7874 2167.61358 5924.05657 2167.13219 5929.24251 2166.65097 5929.25129 2165.20698 5928.25379 2164.72558 5927.51445 2164.24419 5928.37848 2163.7628 5925.90932 2163.28159 5925.30169 2161.83742 5924.56058 2161.3562 5920.20003 2160.87481 5919.75221 2160.19296 5919.8207 2159.71157 5918.78808 2158.26757 5918.91101 2157.78618 5918.87237 2157.30479 5921.49081 2156.82358 5919.96119 2156.34219 5918.61422 2154.89819 5915.9027 2154.4168 5916.37687 2153.93541 5916.7439 2153.45419 5911.49825 2152.9728 5912.54668 2151.52881 5911.356 2151.04742 5910.00902 2150.56603 5913.58457 2150.08464 5911.98997 2149.60342 5911.13472 2148.15943 5909.6051 2147.67803 5906.9691 2147.19664 5907.31331 2146.71525 5902.94222 2145.0708 5900.29568 2144.5894 5901.36694 2144.10801 5902.7069 2143.62662 5903.11257 2143.14541 5904.00294 2141.70141 5900.59072 2141.22002 5908.52858 2140.73863 5904.38579 2140.25724 5900.1868 2139.77603 5897.38924 2138.33186 5900.86995 2137.85064 5901.54607 2137.36925 5902.79822 2136.88786 5902.51723 2136.40664 5903.66049 2134.96247 5905.98038 2134.48126 5910.3304 2133.99987 5907.88933 2133.51848 5905.60105 2133.03726 5902.5945 2131.59309 5902.87198 2131.39263 5902.32581 2130.91124 5899.0892 2130.42985 5896.8659 2129.94863 5899.08218 2128.50446 5898.83631 2128.02325 5897.81423 2127.54186 5898.77309 2127.06046 5893.09542 2126.57925 5894.69353 2125.13508 5896.69555 2124.65386 5900.51521 2124.17247 5897.03098 2123.69108 5892.31744 2123.20969 5887.47043 2121.7657 5884.43929 2121.28448 5883.7298 2120.80309 5884.81335 2120.3217 5881.23254 2119.84031 5881.43625 2117.91492 5879.93649 2117.43371 5876.2784 2116.95232 5876.17479 2116.27046 5875.61633 2114.82647 5875.93595 2114.34508 5876.14845 2113.86369 5878.14696 2113.3823 5876.39958 2112.90108 5876.55939 2111.45691 5877.01775 2110.9757 5874.54332 2110.49431 5874.56263 2110.01291 5873.89002 2109.5317 5872.85389 2108.08753 5870.74122 2107.60631 5869.4803 2107.12492 5868.88496 2106.64353 5870.49536 2106.16214 5870.56209 2104.71815 5866.95142 2104.23693 5866.18047 2103.75554 5866.48253 2103.27415 5868.24396 2102.79276 5869.92636 2101.62952 5860.92252 2101.1483 5870.8782 2100.66691 5870.73069 2100.18552 5866.57736 2098.26013 5864.77378 2097.77892 5864.50158 2097.29753 5863.96946 2096.81614 5858.52887 2096.33475 5858.73083 2094.89075 5859.47017 2094.40936 5857.36804 2093.92815 5857.68064 2093.44676 5858.82039 2092.96536 5857.98095 2091.52137 5857.93704 2091.03998 5854.24208 2090.55876 5854.95683 2090.07737 5857.17311 2089.59598 5853.17784 2088.15199 5846.82229 2087.6706 5844.78865 2086.98874 5840.40176 2086.50735 5839.40074 2086.02614 5835.64607 2084.58197 5837.85005 2084.10075 5840.23492 2083.61936 5836.13253 2083.13797 5834.47998 2082.65676 5837.42155 2081.21258 5839.26201 2080.73137 5836.03769 2080.24998 5835.2 2079.76859 5837.41628 2079.2872 5835.14907 2077.8432 5837.83776 2077.36199 5842.04553 2076.8806 5844.79216 2076.39921 5842.87795 2075.91781 5841.61 2074.47382 5835.08058 2073.99243 5833.40696 2073.51121 5836.62425 2073.02982 5835.54246 2072.82918 5841.70132 2070.90397 5846.70287 2070.42258 5842.84634 2069.94119 5841.83479 2069.4598 5842.53023 2068.01581 5844.73245 2067.53442 5842.78663 2067.0532 5844.86241 2066.57181 5848.06741 2066.09042 5849.25457 2064.64642 5851.07571 2064.16503 5851.55866 2063.68382 5853.75211 2063.20243 5855.32212 2062.72104 5853.35697 2061.27704 5854.5898 2060.79565 5856.64802 2060.31444 5855.05342 2059.83305 5853.96811 2059.35166 5852.21371 2056.74442 5853.04964 2056.26303 5858.08105 2055.78163 5859.9338 2055.30042 5859.87058 2054.81903 5856.11063 2053.37503 5859.28226 2052.89364 5862.12022 2052.41225 5862.77351 2051.93104 5863.26875 2050.00565 5863.46017 2049.52426 5862.45389 2049.04287 5857.70523 2048.56166 5858.51833 2048.08026 5861.74089 2046.63627 5860.76622 2046.15488 5860.09888 2045.67349 5864.10995 2045.19227 5864.5929 2044.71088 5865.86963 2043.54764 5864.29084 2043.06625 5862.02012 2042.58486 5861.54069 2042.10364 5862.698 2041.62225 5862.96142 2040.17826 5864.39972 2039.69687 5867.48179 2039.21548 5864.79486 2038.73426 5862.26423 2038.25287 5860.10415 2036.80887 5858.25491 2036.32748 5858.17237 2035.84609 5859.50003 2035.3647 5857.68767 2034.88349 5857.34873 2033.43949 5854.17534 2032.9581 5855.55393 2032.47671 5856.32137 2031.99532 5854.0928 2031.51411 5853.64147 2030.06993 5849.01925 2029.58872 5849.83235 2028.90669 5849.2335 2028.42548 5850.27666 2026.98148 5850.45228 2026.50009 5849.32131 2025.53731 5847.70915 2025.05609 5849.48639 2023.61192 5851.65525 2023.13071 5849.86396 2022.64932 5846.64667 2022.16793 5843.26957 2021.68671 5849.3178 2020.24254 5849.61283 2019.76132 5854.73204 2019.27993 5851.2724 2018.79854 5855.53988 2018.31715 5850.45228 2016.87316 5846.89078 2016.39194 5851.0441 2015.91055 5851.2847 2015.42916 5851.7694 2014.94777 5850.20641 2013.30331 5849.01047 2012.34053 5847.95853 2011.85914 5847.90935 2011.37793 5846.80473 2009.93393 5844.60074 2009.45254 5845.45951 2008.97115 5844.93617 2008.48976 5843.0202 2008.00854 5844.63938 2006.56437 5846.39203 2006.08316 5844.26532 2005.60177 5844.05106 2005.12038 5845.39453 2004.63916 5843.7894 2003.19499 5843.10098 2002.71377 5841.57839 2002.23238 5838.97048 2001.75099 5837.61824 2001.26978 5837.68322 1999.82561 5837.72712 1999.62514 5835.14907 1999.14375 5834.6152 1998.66236 5837.06329 1998.18115 5838.0204 1996.73698 5838.32597 1996.25576 5838.99156 1995.77437 5836.90173 1995.29298 5839.3867 1994.81177 5840.92861 1993.36759 5841.09895 1992.88638 5842.97102 1992.40499 5843.52421 1991.9236 5845.42614 1991.44221 5842.45998 1989.99821 5840.93212 1989.517 5839.7309 1989.03561 5841.91206 1988.55422 5842.94117 1988.07283 5841.84005 1986.62883 5840.60723 1986.14744 5840.10321 1985.66622 5837.77805 1985.18483 5837.72888 1984.50298 5838.67896 1983.05899 5838.77555 1982.57759 5838.52969 1982.0962 5837.01412 1981.61481 5835.48626 1981.1336 5836.49254 1979.68943 5835.98501 1979.20821 5834.38163 1978.72682 5833.76873 1978.24543 5834.27099 1977.76422 5831.81237 1976.32004 5829.32037 1975.83883 5825.88356 1975.35744 5824.03783 1974.87605 5824.63317 1974.39466 5823.16326 1972.95066 5821.0506 1972.46945 5822.91038 1971.98806 5823.66377 1971.50667 5821.8479 1969.86203 5824.37853 1969.38082 5825.28295 1968.89943 5824.80001 1968.41804 5823.32483 1967.93665 5823.79021 1966.49265 5823.52152 1966.01144 5821.26485 1965.53004 5819.89329 1965.04865 5821.6196 1964.56726 5821.95678 1963.12327 5822.28167 1962.64188 5821.62662 1962.16066 5820.9066 1961.67927 5822.22723 1961.19788 5822.44324 1959.75389 5821.98839 1959.27249 5822.87525 1958.79128 5821.77414 1958.30989 5819.17853 1957.8285 5820.90133 1956.3845 5817.58394 1955.90311 5812.72288 1955.70265 5811.37414 1955.22126 5811.16516 1954.73987 5812.34882 1953.29587 5810.00083 1952.81448 5807.18218 1952.33327 5803.79455 1951.85188 5813.29714 1951.37049 5815.34658 1949.92649 5817.20285 1949.4451 5814.90052 1948.96389 5810.86661 1948.48249 5808.2991 1948.0011 5816.44243 1946.55711 5818.0581 1946.07572 5823.23351 1945.5945 5825.34969 1945.11311 5825.62014 1944.63172 5826.13118 1943.18773 5828.7865 1942.22494 5832.03364 1941.74373 5833.01709 1941.26234 5831.03965 1939.61771 5828.57576 1939.13649 5825.43047 1938.6551 5828.53361 1938.17371 5831.00629 1937.69232 5829.68565 1936.24832 5829.04992 1935.76693 5830.29504 1935.28572 5830.98521 1934.80433 5834.83648 1934.32294 5836.24843 1932.87894 5837.97825 1932.39755 5839.92584 1931.91634 5839.85735 1931.43494 5839.43587 1930.95355 5839.09342 1929.50956 5837.44262 1929.02817 5842.69355 1928.54695 5841.06559 1928.06556 5840.94792 1927.58417 5841.03222 1926.42093 5840.40527 1925.93954 5838.28207 1925.45832 5840.06106 1924.97693 5842.27207 1923.05155 5842.32476 1922.57016 5842.20007 1922.08894 5841.19203 1921.60755 5842.42661 1921.12616 5841.63985 1919.68216 5840.95495 1919.20077 5838.64911 1918.71938 5839.93111 1918.23817 5838.13982 1917.75678 5834.32192 1916.31278 5832.36029 1915.83139 5830.90092 1915.35 5830.17913 1914.86879 5831.52962 1914.38739 5831.24864 1912.9434 5830.82891 1912.46201 5833.51936 1911.98062 5831.88964 1911.29877 5831.69997 1910.81737 5831.22054 1909.37338 5830.88862 1908.89199 5829.69619 1908.41077 5828.5459 1907.92938 5825.71321 1907.44799 5823.56543 1906.004 5823.374 1905.52261 5820.35692 1905.04139 5820.27613 1904.56 5819.21717 1904.07861 5816.4916 1902.63461 5815.75577 1902.15322 5816.9043 1901.67201 5817.57691 1901.19062 5817.97732 1900.70923 5817.10977 1898.78384 5818.81852 1898.30245 5817.70511 1897.82124 5817.4013 1897.33984 5817.01318 1896.1766 5815.59245 1895.69521 5814.43514 1895.214 5814.47904 1894.73261 5813.38671 1894.25122 5816.75678 1892.80722 5816.3195 1892.32583 5816.4635 1891.84444 5817.886 1891.36322 5819.16448 1890.88183 5816.48809 1889.43784 5814.71612 1888.95645 5814.3965 1888.47506 5812.47175 1887.99384 5812.26276 1887.51245 5809.85331 1886.06845 5812.63156 1885.58706 5814.73017 1885.10567 5815.45371 1884.62446 5813.23216 1884.14307 5814.05229 1882.69907 5815.81372 1881.53583 5816.38096 1881.05444 5817.68579 1880.57305 5818.48134 1880.09166 5818.90281 1878.64766 5819.26634 1878.16645 5816.02973 1877.68506 5813.38671 1877.20367 5813.45695 1875.27828 5814.48782 1874.79689 5813.82048 1874.31567 5814.17347 1873.83428 5813.26904 1873.35289 5815.0937 1871.9089 5814.83905 1871.42751 5813.35334 1870.94629 5814.04527 1870.4649 5813.20407 1869.98351 5811.24946 1868.53951 5811.02116 1868.05812 5808.66965 1867.85766 5807.60718 1867.37627 5806.40245 1866.89488 5805.90721 1865.45088 5804.53389 1864.96949 5806.37084 1864.48828 5804.17915 1864.00689 5803.6242 1863.5255 5801.9014 1862.0815 5800.12417 1861.60011 5799.03008 1861.1189 5796.20441 1860.63751 5797.43899 1860.15612 5800.18739 1858.71212 5800.76692 1858.23073 5798.4242 1857.74951 5797.02103 1857.26812 5803.98948 1856.78673 5804.57428 1855.34274 5802.37381 1854.86135 5806.72734 1854.37996 5808.33598 1853.89874 5807.71606 1852.25411 5805.85979 1851.77272 5806.2321 1851.2915 5807.2015 1850.81011 5806.79056 1848.88472 5805.72281 1848.40333 5803.74889 1847.92194 5804.14754 1847.44073 5799.39185 1846.95934 5803.5522 1845.51534 5805.65784 1845.03395 5808.45365 1844.55256 5808.00231 1844.07135 5809.32295 1843.58996 5809.79711 1842.14596 5808.34828 1841.66457 5809.30714 1841.18318 5810.35557 1840.70196 5810.94915 1840.22057 5808.61521 1838.77658 5809.09113 1838.09455 5808.40799 1837.61333 5807.68972 1837.13194 5803.82089 1836.65055 5804.4092 1835.20656 5802.44933 1834.24395 5803.24311 1833.76256 5803.57327 1833.28117 5806.88012 1831.83717 5806.3884 1831.35578 5805.16962 1830.87439 5806.19347 1830.39318 5807.94612 1829.91179 5809.53895 1828.46779 5809.62852 1827.9864 5808.45365 1827.50501 5806.5166 1827.0238 5808.79785 1826.54241 5809.96395 1825.09841 5808.82595 1824.61702 5805.83345 1824.13563 5804.98874 1823.93517 5806.08985 1823.45378 5803.38536 1822.00978 5801.32011 1821.52839 5803.0394 1821.047 5805.48046 1820.56578 5805.38036 1820.08439 5804.63399 1818.6404 5806.62899 1818.15901 5805.95463 1817.67762 5806.39718 1817.1964 5802.21927 1816.71501 5801.6573 1815.27102 5802.00853 1814.78962 5799.06696 1814.30823 5797.14396 1813.82702 5794.68709 1813.34563 5799.6342 1811.90163 5801.58881 1811.42024 5798.80178 1810.93885 5801.43075 1810.45746 5803.35375 1809.97625 5805.70701 1808.33161 5806.83095 1807.85022 5803.44156 1807.36901 5804.58482 1806.88762 5806.87486 1806.40623 5807.83899 1804.96223 5808.21656 1804.48084 5809.45466 1803.99945 5809.57583 1803.51823 5807.0452 1803.03684 5807.5703 1801.59285 5809.49154 1801.11146 5810.42055 1800.63007 5809.91302 1800.14885 5810.50309 1799.66746 5809.05777 1798.22347 5807.67215 1797.74207 5806.95213 1797.26068 5805.58056 1796.77947 5802.25439 1794.85408 5801.84872 1794.65345 5800.8758 1794.17205 5799.66054 1793.69084 5799.81859 1793.20945 5802.07351 1791.76545 5802.21927 1791.28406 5803.40117 1790.80267 5803.23784 1790.32146 5802.21049 1789.84007 5804.2371 1788.39607 5804.16861 1787.91468 5803.07276 1787.43329 5801.28148 1786.9519 5801.00049 1786.47068 5799.17408 1785.02669 5799.15477 1784.5453 5799.46736 1784.06391 5799.03535 1783.58252 5797.96584 1783.1013 5797.1703 1781.65731 5795.59327 1781.17592 5794.95578 1780.69452 5797.57949 1780.21313 5798.71397 1780.01267 5799.56746 1778.56868 5800.19266 1778.08729 5798.865 1777.6059 5797.87101 1777.1245 5795.63015 1776.64329 5792.13714 1775.19929 5791.28189 1774.7179 5790.70587 1774.23651 5796.42393 1773.75512 5799.43048 1773.27391 5798.56645 1771.82974 5796.49945 1771.34852 5796.55389 1770.86713 5794.2059 1770.38574 5794.11633 1769.90452 5793.24177 1768.46035 5790.16672 1767.97914 5788.48432 1767.49775 5787.38321 1766.53497 5786.84582 1764.89051 5785.79739 1764.40912 5784.57159 1763.92773 5784.05177 1763.44651 5785.3004 1762.96512 5787.608 1761.52113 5787.66419 1761.03974 5788.10675 1760.55835 5786.42785 1760.07695 5785.11073 1759.59574 5782.61523 1758.15174 5781.64407 1757.67035 5780.23211 1757.18896 5779.51735 1756.70757 5779.21003 1756.22636 5778.33897 1754.78219 5778.36882 1754.30097 5777.74714 1753.81958 5777.4363 1753.33819 5777.86129 1752.85698 5776.53012 1751.4128 5775.10236 1750.93159 5774.84772 1750.73095 5773.70621 1750.24956 5776.09459 1748.32417 5776.70749 1747.84296 5776.96741 1747.36157 5777.87359 1746.88018 5775.96112 1746.39896 5774.83016 1744.95479 5774.25238 1744.47358 5776.05245 1743.99219 5775.52033 1743.5108 5774.44731 1743.0294 5773.80631 1741.58541 5772.75262 1741.10419 5771.59004 1740.6228 5772.18011 1740.14141 5772.16957 1739.66002 5770.95079 1738.21603 5771.93249 1737.73481 5772.35924 1737.25342 5770.82259 1736.77203 5770.67859 1736.29064 5771.16856 1734.64618 5770.63117 1734.16479 5769.83914 1733.6834 5768.66603 1733.20201 5768.51675 1732.7208 5767.39808 1731.2768 5767.07143 1730.79541 5766.45677 1730.31402 5767.7177 1729.83263 5769.17531 1729.35141 5769.48791 1727.42603 5768.41841 1726.94464 5767.79146 1726.46325 5767.55086 1725.98203 5765.8509 1724.53786 5765.92114 1724.05664 5766.28818 1723.57525 5765.71743 1723.09386 5766.31101 1722.61247 5766.13539 1721.44923 5765.64016 1720.96801 5766.94147 1720.48662 5767.89858 1720.00523 5767.33837 1719.52402 5766.45502 1718.07985 5765.59098 1717.59863 5764.94823 1717.11724 5764.83408 1716.63585 5765.25731 1716.15446 5764.78139 1714.71046 5765.25204 1714.22925 5764.57592 1713.74786 5764.71642 1713.26647 5764.09825 1712.78508 5763.70487 1711.34108 5762.60551 1710.85969 5762.69683 1710.37848 5762.09446 1709.89709 5762.94093 1709.4157 5762.70561 1707.9717 5762.12256 1707.49031 5761.98031 1707.00909 5762.31925 1705.36446 5760.77383 1704.88307 5761.47981 1703.43907 5761.69933 1702.95768 5761.42888 1702.47647 5760.49811 1701.99508 5761.16019 1700.06969 5761.90831 1699.5883 5762.61604 1699.10691 5761.6923 1698.6257 5761.58342 1698.1443 5761.50615 1696.70031 5760.92837 1696.21892 5760.68778 1695.73753 5759.83604 1695.25631 5759.76579 1694.77492 5758.54175 1693.33093 5757.43361 1692.84954 5755.96721 1692.36815 5755.7073 1692.16768 5755.03469 1691.68629 5756.22537 1690.2423 5756.09014 1689.76091 5756.47474 1689.27952 5756.23591 1688.7983 5756.38167 1688.31691 5756.17093 1686.87291 5757.69352 1686.39152 5758.45745 1685.91013 5758.57511 1685.42892 5757.90075 1684.94753 5756.69426 1683.50353 5756.00234 1683.02214 5755.52817 1682.54075 5755.9637 1682.05954 5755.28407 1681.57815 5754.56755 1680.13415 5753.87914 1679.65276 5753.98451 1679.17137 5753.61571 1678.68998 5754.76424 1677.04552 5754.40423 1676.56413 5753.2996 1676.08274 5753.90021 1675.60152 5753.41024 1673.67614 5752.60767 1673.19475 5752.29683 1672.71336 5750.97269 1672.23197 5750.94634 1671.75075 5750.80234 1670.30675 5751.16762 1669.82536 5750.50203 1669.34397 5749.10764 1668.86258 5749.25165 1668.38137 5749.13223 1666.9372 5749.13574 1666.45598 5751.85428 1665.97459 5752.82017 1665.4932 5753.58761 1665.01199 5753.74918 1663.56781 5753.1275 1663.0866 5754.32871 1662.40457 5754.78707 1661.92336 5753.91426 1661.44197 5753.31892 1659.99797 5752.28981 1659.03519 5752.48474 1658.55397 5755.68798 1658.07258 5757.52493 1656.62859 5757.44415 1656.1472 5758.10798 1655.66581 5757.99909 1655.18442 5757.82348 1654.7032 5756.92432 1653.2592 5756.98227 1652.77781 5757.43185 1652.29642 5758.18173 1651.81503 5756.74871 1651.33382 5757.38268 1649.88982 5758.52067 1649.40843 5758.50487 1648.92704 5758.4434 1648.44565 5759.14411 1648.24519 5759.07738 1646.80119 5757.65664 1646.3198 5756.95418 1645.83841 5756.12702 1645.35702 5755.80389 1644.87581 5757.38268 1643.43181 5757.59693 1642.95042 5758.36789 1642.46903 5757.24746 1641.98764 5757.474 1641.50642 5757.53195 1640.06225 5757.75674 1639.58104 5758.06407 1639.09965 5757.22463 1638.61826 5756.00409 1638.13704 5754.76775 1636.69287 5753.69649 1636.21166 5754.17417 1635.73026 5753.86509 1635.24887 5756.47299 1634.76748 5757.07535 1633.12303 5756.35006 1632.64163 5756.23766 1632.16024 5755.60896 1631.67903 5755.43685 1631.19764 5755.75472 1629.75364 5756.26927 1629.27225 5756.60646 1628.79086 5757.54249 1628.30947 5759.0686 1627.82826 5759.47427 1626.38426 5759.40402 1625.90287 5757.76728 1625.42148 5757.39322 1624.94009 5756.61699 1624.45887 5756.91554 1623.0147 5757.38092 1622.53349 5757.12277 1622.0521 5756.37991 1621.57071 5756.11649 1619.64532 5756.20605 1619.16411 5756.8172 1618.96347 5757.29663 1618.48208 5756.76451 1618.00086 5756.89447 1616.55669 5755.67569 1616.07548 5754.91878 1615.59408 5754.20578 1615.11269 5753.36107 1614.63148 5753.08711 1613.18731 5753.38565 1612.70609 5753.17667 1612.2247 5752.25293 1611.74331 5751.6172 1611.26192 5751.39241 1609.81793 5750.92176 1609.33671 5750.6074 1608.85532 5749.76971 1608.37393 5749.34648 1607.89254 5748.86705 1606.44854 5749.03037 1605.96733 5750.04016 1605.48594 5750.19295 1605.00455 5750.20173 1604.52316 5749.76445 1603.35991 5748.19971 1602.8787 5747.8713 1602.39731 5748.52811 1601.91592 5748.75641 1601.43453 5748.67914 1599.99053 5748.6967 1599.50932 5748.09258 1599.02793 5749.19018 1598.54653 5749.73986 1598.06514 5749.66961 1596.62115 5749.55371 1596.13976 5749.32716 1595.65854 5747.66408 1595.17715 5747.03888 1594.69576 5747.23908 1593.25177 5746.73682 1592.77038 5746.01328 1592.28916 5746.18714 1591.80777 5746.93527 1589.88238 5746.858 1589.20053 5746.76316 1588.71914 5746.20646 1588.23775 5746.47867 1587.75653 5744.72777 1586.31236 5745.71474 1585.83115 5748.02058 1585.34976 5747.60085 1584.86837 5748.63699 1584.38698 5750.39842 1582.94298 5751.97897 1582.46177 5751.62774 1581.98038 5752.42679 1581.49898 5751.70501 1581.01759 5751.57154 1579.5736 5751.0324 1579.09221 5751.04118 1578.61099 5752.41976 1578.1296 5753.21179 1577.64821 5753.3558 1576.20422 5752.53216 1575.72283 5752.36532 1575.24161 5751.58032 1575.04097 5751.16762 1573.11559 5751.11142 1572.6342 5751.70149 1572.15298 5750.85678 1571.67159 5750.65131 1571.1902 5750.60038 1569.7462 5750.53189 1569.26481 5749.83821 1568.7836 5748.47542 1568.30221 5747.2303 1567.82082 5748.42801 1566.37682 5748.79504 1565.89543 5749.47117 1565.41422 5750.06299 1564.93283 5750.56526 1564.45143 5751.01483 1563.00744 5751.40646 1562.52605 5753.01686 1562.04483 5752.66914 1561.56344 5753.10291 1561.08205 5751.71906 1559.43742 5750.97444 1558.9562 5752.08083 1557.99342 5751.64178 1557.51203 5749.94182 1556.06804 5749.58883 1555.58682 5747.4428 1555.10543 5748.61943 1554.62404 5749.67839 1554.14265 5751.21855 1552.69865 5750.70926 1552.21726 5750.56174 1551.73605 5752.86232 1551.25466 5753.86157 1550.77327 5754.09514 1549.32927 5755.10142 1548.84788 5754.70453 1548.36667 5754.80639 1547.88528 5752.69899 1547.40389 5749.80308 1545.75925 5753.46644 1545.27804 5753.85455 1544.79665 5758.11851 1544.31526 5759.80443 1542.87126 5760.823 1542.38987 5762.19983 1541.90865 5763.11831 1541.42726 5762.59673 1540.94587 5763.3431 1539.50188 5763.17626 1539.02049 5763.38349 1538.53927 5762.40355 1538.05788 5762.34208 1537.57649 5761.64137 1536.13249 5760.97228 1535.6511 5762.23847 1535.16971 5762.07866 1534.6885 5762.27711 1534.20711 5762.19632 1532.76311 5761.01442 1532.28172 5760.61051 1531.80033 5758.57511 1531.31912 5761.92763 1529.67448 5761.24975 1528.23049 5760.10298 1527.7491 5759.93614 1527.26771 5762.02246 1526.78649 5761.10399 1524.8611 5761.81699 1524.37971 5762.63712 1523.89832 5762.02246 1523.41693 5760.9231 1522.93572 5760.43665 1521.49172 5759.98356 1521.01033 5761.23394 1520.52894 5760.41382 1520.04755 5759.85009 1519.56634 5758.1589 1518.12234 5762.8303 1517.64095 5763.04104 1517.15956 5762.78112 1516.67817 5763.03752 1516.47771 5762.92337 1515.03371 5762.44218 1514.55232 5761.40605 1514.07093 5760.70358 1513.58954 5761.55532 1513.10832 5762.24198 1511.66433 5762.31574 1511.18294 5761.61503 1510.70155 5761.49561 1510.22016 5761.89953 1509.73894 5761.85387 1508.29477 5761.55708 1507.81355 5760.56836 1507.33216 5761.24273 1506.85077 5760.84408 1506.36956 5760.3383 1504.92539 5759.67798 1504.44417 5759.86589 1503.96278 5758.96498 1503.48139 5758.29764 1503 5758.76829 1503 5681"></polygon>
        </g>
    </g>
</svg>