<?xml version="1.0" encoding="UTF-8"?>
<svg width="528px" height="783px" viewBox="0 0 528 783" version="1.1" xmlns="http://www.w3.org/2000/svg" xmlns:xlink="http://www.w3.org/1999/xlink">
    <!-- Generator: Sketch 53.2 (72643) - https://sketchapp.com -->
    <title>Group 23</title>
    <desc>Created with Sketch.</desc>
    <defs>
        <filter x="-29.5%" y="-18.2%" width="159.0%" height="136.4%" filterUnits="objectBoundingBox" id="filter-1">
            <feOffset dx="0" dy="0" in="SourceAlpha" result="shadowOffsetOuter1"></feOffset>
            <feGaussianBlur stdDeviation="32" in="shadowOffsetOuter1" result="shadowBlurOuter1"></feGaussianBlur>
            <feColorMatrix values="0 0 0 0 0   0 0 0 0 0   0 0 0 0 0  0 0 0 0.5 0" type="matrix" in="shadowBlurOuter1" result="shadowMatrixOuter1"></feColorMatrix>
            <feMerge>
                <feMergeNode in="shadowMatrixOuter1"></feMergeNode>
                <feMergeNode in="SourceGraphic"></feMergeNode>
            </feMerge>
        </filter>
    </defs>
    <g id="Page-1" stroke="none" stroke-width="1" fill="none" fill-rule="evenodd">
        <g id="Nextcloud-Website-Copy" transform="translate(-451.000000, -69.000000)" fill-rule="nonzero">
            <g id="Group-23" filter="url(#filter-1)" transform="translate(504.000000, 114.000000)">
                <g id="statue-of-liberty" transform="translate(84.000000, 71.000000)">
                    <path d="M147.28708,268.000501 C147.28708,268.000501 150.50562,267.389773 153.749632,267.175719 L152.257237,227.891582 C147.05483,234.813159 141.104728,239.969913 132.491988,242.189787 C131.633411,242.411325 130.753857,242.522094 129.872804,242.522094 C128.991752,242.522094 128.112197,242.411325 127.25362,242.189787 C118.942057,240.046254 113.185247,235.190373 108.012808,228.632538 C107.828506,228.399025 107.668179,228.147549 107.488372,227.909545 L105.245284,248.801509 L147.28708,268.000501 Z" id="Path" fill="#E0E2E2"></path>
                    <path d="M139.10681,239.593996 C137.076347,240.643065 134.896035,241.510076 132.492446,242.127878 C131.633808,242.348734 130.752692,242.459163 129.873074,242.459163 C128.993457,242.459163 128.112341,242.348734 127.255201,242.127878 C118.943041,239.990941 113.185817,235.150004 108.013007,228.612351 C107.828692,228.379556 107.668353,228.128854 107.488533,227.891582 L105.245284,248.719253 L136.587837,262.986886 L139.10681,239.593996 Z" id="Path" fill="#CBD0D1"></path>
                    <ellipse id="Oval" fill="#39C6FF" cx="129.971686" cy="186.742476" rx="41.4405177" ry="43.359003"></ellipse>
                    <path d="M117.194112,174.473067 C117.194112,162.135875 122.14216,151.011836 130.065927,143.124856 C129.962593,143.123365 129.860756,143.115914 129.755925,143.115914 C106.868205,143.115914 88.3145207,162.501013 88.3145207,186.415314 C88.3145207,210.328125 106.868205,229.714715 129.755925,229.714715 C140.835121,229.714715 150.889963,225.163158 158.325514,217.763526 C135.583061,217.589154 117.194112,198.277082 117.194112,174.473067 Z" id="Path" fill="#19A1D8"></path>
                    <path d="M84.9433423,162.258807 L86.8753926,167.84446 C87.1285787,168.576374 86.6297419,169.351253 85.847578,169.438668 L56.360451,172.738204 C55.7892754,172.801913 55.6084283,172.004809 56.1524768,171.824054 L84.9433423,162.258807 Z" id="Path" fill="#53CDFF"></path>
                    <path d="M174.96675,162.258807 L173.034699,167.84446 C172.781513,168.576374 173.28035,169.351253 174.062514,169.438668 L203.549641,172.738204 C204.120817,172.801913 204.301664,172.004809 203.757615,171.824054 L174.96675,162.258807 Z" id="Path" fill="#A5E5FF"></path>
                    <path d="M140.057151,140.091957 C134.170006,139.275578 129.851066,139.49755 129.851066,139.49755 C129.851066,139.49755 125.530625,139.274089 119.640478,140.091957 C105.439598,142.631965 93.9774488,150.344354 89.1182657,160.382229 C87.8141798,163.82949 86.5686202,167.422746 87.0458346,172.499783 L89.6029835,176.843868 C89.6029835,176.843868 93.9759481,146.386112 129.851066,146.386112 C165.726183,146.386112 170.097647,176.843868 170.097647,176.843868 L172.654796,172.499783 C173.705268,168.109516 171.886451,163.83098 170.582365,160.383719 C165.724683,150.344354 154.261032,142.631965 140.057151,140.091957 Z" id="Path" fill="#CBD0D1"></path>
                    <path d="M87.0340752,170.941648 C87.0340752,153.449704 106.147922,139.269544 129.726252,139.269544 C153.304582,139.269544 172.418429,153.449704 172.418429,170.941648 C172.418429,171.393255 172.397497,171.840391 172.372079,172.286036 C173.935994,168.755155 174.798689,164.972388 174.798689,161.033124 C174.798689,141.824179 154.618808,126.251937 129.726252,126.251937 C104.833696,126.251937 84.6538152,141.824179 84.6538152,161.033124 C84.6538152,164.972388 85.5150148,168.755155 87.0789294,172.286036 C87.0550072,171.840391 87.0340752,171.393255 87.0340752,170.941648 Z" id="Path" fill="#FFFFFF"></path>
                    <g id="Group" transform="translate(119.430518, 82.040970)" fill="#A5E5FF">
                        <path d="M9.57782131,0.746536361 L0.454942759,44.9198738 L8.78504977,49.031038 C9.77901712,49.5213878 10.944151,49.5213878 11.9381184,49.031038 L20.2682254,44.9198738 L11.1468483,0.746536361 C10.9711773,-0.102605906 9.75199081,-0.102605906 9.57782131,0.746536361 Z" id="Path"></path>
                        <path d="M32.180819,48.3926863 L36.4885113,56.1067252 C37.0530607,57.1173241 38.4103817,57.3505392 39.2827307,56.5866102 L72.1872539,27.7426826 C72.8238735,27.1850592 72.1151838,26.1864201 71.3749634,26.5990315 L32.180819,48.3926863 Z" id="Path"></path>
                        <path d="M50.6307748,62.9686319 L52.2043062,71.6558955 C52.4100064,72.7935667 53.6201841,73.451353 54.6922275,73.0088422 L95.1911417,56.2965863 C95.9749045,55.973673 95.628067,54.8016175 94.7932545,54.9526093 L50.6307748,62.9686319 Z" id="Path"></path>
                    </g>
                    <g id="Group" transform="translate(44.386054, 108.476393)" fill="#53CDFF">
                        <path d="M63.5731423,21.9477398 L59.2683122,29.6647185 C58.7041379,30.6757025 57.3477188,30.9090065 56.4759495,30.1447863 L23.5932897,1.28986636 C22.9570931,0.732030492 23.6653119,-0.266989232 24.4050405,0.145779396 L63.5731423,21.9477398 Z" id="Path"></path>
                        <path d="M45.136946,36.5292402 L43.5644602,45.2198145 C43.3588967,46.3579193 42.149523,47.0159562 41.078192,46.5732768 L0.606187295,29.8546519 C-0.177054705,29.5316155 0.169552387,28.3591134 1.00381015,28.5101627 L45.136946,36.5292402 Z" id="Path"></path>
                    </g>
                    <path d="M134.425159,163.949167 L133.053077,162.751961 C131.654063,161.530871 129.58023,161.483102 128.125853,162.63851 L126.043043,164.293998 L126.043043,164.293998 C121.955227,170.008342 114.117754,178.875427 100.085715,188.409783 C99.0293467,189.127807 98.3814609,190.316057 98.3814609,191.590887 L98.3814609,206.293231 C98.3814609,209.640033 98.8153798,212.889805 99.6308481,215.988806 C100.446316,219.087808 101.643334,222.039024 103.166539,224.785731 C104.182508,226.617366 105.343615,228.357942 106.634898,229.992531 C111.800029,236.53238 119.038993,241.374943 127.338814,243.512597 C128.196178,243.733528 129.07449,243.843993 129.954298,243.843993 C130.83261,243.843993 131.712418,243.733528 132.569781,243.512597 C141.906519,241.107736 149.902597,235.279941 155.11112,227.462277 C155.690178,226.593482 156.234821,225.700802 156.742057,224.785731 C157.758026,222.954096 158.62736,221.032894 159.338089,219.037053 C160.755059,215.045372 161.528631,210.755136 161.528631,206.293231 L161.528631,191.589394 C161.528631,190.314564 160.880745,189.1293 159.825874,188.409783 C146.178376,179.111285 138.864598,170.447217 135.099978,164.723917 C134.908455,164.432826 134.687006,164.177561 134.425159,163.949167 Z" id="Path" fill="#FFFFFF"></path>
                    <g id="Group" transform="translate(97.923873, 174.564952)" fill="#E0E2E2">
                        <path d="M27.4396502,55.7890482 C26.1472548,54.156507 24.9851472,52.4181116 23.968303,50.588771 C22.4437856,47.8455055 21.2457365,44.8994768 20.4295655,41.8028668 C19.6133946,38.7077477 19.1776043,35.4620471 19.1776043,32.1194377 L19.1776043,19.4303438 L19.1776043,17.4355127 L19.1776043,5.83179776 L19.1776043,4.74492789 L19.1776043,0.318430437 C14.8855934,4.55558293 9.27872373,9.31306133 1.98859508,14.2569029 C0.931316764,14.9740283 0.282872699,16.1607888 0.282872699,17.4340218 L0.282872699,32.1179468 C0.282872699,35.4605562 0.718663052,38.7062568 1.53483399,41.8013759 C2.34950736,44.8979859 3.549054,47.8440146 5.07357146,50.5872801 C6.09041561,52.4166207 7.25402078,54.1550161 8.54491867,55.7875573 C13.7145004,62.3192128 20.9597023,67.1557092 29.2666751,69.2906854 C30.1247777,69.5113394 31.0038462,69.6216664 31.8829147,69.6216664 C32.7619833,69.6216664 33.6425493,69.5113394 34.500652,69.2906854 C36.880277,68.6794143 39.1715458,67.8400347 41.3534927,66.8083283 C35.9068621,64.2394987 31.1356316,60.4585632 27.4396502,55.7890482 Z" id="Path"></path>
                        <path d="M229.180632,237.761479 L229.215076,238.357841 C229.391789,241.396306 227.040617,244.026262 223.988587,244.20368 L199.534908,245.618549 C196.482878,245.794476 193.84118,243.453755 193.66297,240.41529 L193.628526,239.818928 C193.451814,236.780463 195.802985,234.150506 198.855015,233.973089 L223.308694,232.55822 C226.360724,232.382293 229.00392,234.723014 229.180632,237.761479 Z" id="Path"></path>
                    </g>
                    <path d="M131.322858,604.368476 C156.846644,604.368476 181.782124,601.870198 205.914686,597.151061 L205.914686,291.245442 L86.9417561,601.817995 C101.505337,603.482519 116.309043,604.368476 131.322858,604.368476 Z" id="Path" fill="#0092C4"></path>
                    <path d="M4.5758819,216.952786 C4.5758819,216.952786 6.7473288,179.926511 54.4529946,152.231577 C54.4529946,152.231577 51.1191319,201.42535 4.5758819,216.952786 Z" id="Path" fill="#BBBEBF"></path>
                    <path d="M27.3684338,49.5741099 C25.901898,42.803927 30.7727512,35.771172 32.3094062,29.015908 C33.3074861,24.6312523 33.5805034,20.0780134 33.571552,16.3244259 C33.558125,11.1237081 31.9334479,6.06919516 28.9183219,1.83223629 C25.2661554,-3.29687097 15.6267147,3.8406974 0,23.2449414 C6.2715191,51.6337924 9.40727864,65.828218 9.40727864,65.828218 L23.6489378,211.027605 L58.5712884,170.346832 L27.3684338,49.5741099 Z" id="Path" fill="#E0E2E2"></path>
                    <path d="M21.0490568,186.120373 L23.4959959,211.027605 L58.5712884,170.236589 L54.6633781,152.231577 L54.6633781,152.231577 C54.6633781,152.233073 42.7598356,172.869426 21.0490568,186.120373 Z" id="Path" fill="#CBD0D1"></path>
                    <path d="M54.6648021,152.231577 C55.062729,154.744256 49.1297292,194.14932 6.96444174,214.42522 C4.26272779,215.724058 3.00462069,218.873481 3.99943784,221.694839 C10.2989491,239.550515 30.3463847,302.269062 30.3463847,377.38846 L148.716162,264.810019 L93.3235462,239.595251 C89.3502614,237.786421 86.2491246,234.495334 84.6888325,230.42882 L54.6648021,152.231577 Z" id="Path" fill="#FFFFFF"></path>
                    <path d="M27.9876105,200.088809 C22.1487086,205.298589 15.0912401,210.194976 6.52070564,214.300419 C3.80710375,215.600253 2.54346078,218.752087 3.54415783,221.575606 C9.87138793,239.444956 30.0070352,302.211534 30.0070352,377.38846 L58.1137002,350.75307 C53.2078806,278.542927 35.1277191,220.620505 27.9876105,200.088809 Z" id="Path" fill="#E0E2E2"></path>
                    <path d="M26.585711,438.572013 L19.0255065,448.904363 C13.8880992,455.926248 12.0728719,464.82769 14.0542082,473.289426 L29.9138771,541.014616 L179.374571,270.057216 C175.548078,268.298392 172.056795,267.058271 168.891745,266.177368 L26.585711,438.572013 Z" id="Path" fill="#7AD8FF"></path>
                    <path d="M65.9468408,390.606172 L26.5859076,438.377877 L19.0255915,448.729657 C13.8881083,455.764747 12.0728542,464.682928 14.0542197,473.160576 L29.9141228,541.014616 L69.319951,469.443672 C69.3992655,466.12698 69.5534049,464.276742 69.5534049,464.276742 C51.0626555,414.744398 65.9408548,390.616625 65.9468408,390.606172 Z" id="Path" fill="#0089B7"></path>
                    <path d="M148.736915,264.795048 L30.1032,377.496235 C12.2750081,405.006102 26.2754837,438.463404 26.2754837,438.463404 L168.850042,265.804201 C155.966546,262.216931 148.736915,264.795048 148.736915,264.795048 Z" id="Path" fill="#A5E5FF"></path>
                    <path d="M58.3008105,350.953037 L58.3008105,350.953037 L30.140217,377.566399 C12.2391362,405.044607 26.2968515,438.463404 26.2968515,438.463404 L65.8926994,390.762739 L65.8926994,390.762739 C53.9049518,370.747545 58.3008105,350.953037 58.3008105,350.953037 Z" id="Path" fill="#00A1D7"></path>
                    <path d="M179.313278,269.823633 L24.2991293,544.245532 C17.2294802,556.761572 14.568441,571.28728 16.7667559,585.481773 C16.8596003,586.08154 16.9449572,586.673848 17.0363041,587.272123 C49.3985549,597.344335 83.6072107,603.240555 119.025838,604.368476 C197.849206,425.864591 205.914686,291.373482 205.914686,291.373482 C195.47269,273.04328 179.313278,269.823633 179.313278,269.823633 Z" id="Path" fill="#53CDFF"></path>
                    <path d="M69.3895695,464.443045 L69.3895695,464.443045 L24.2948747,544.276025 C17.2288568,556.785717 14.5691843,571.304058 16.7663701,585.491352 C16.8591668,586.090815 16.9444798,586.682822 17.0357798,587.280794 C49.3814086,597.347898 83.5724939,603.241127 118.972929,604.368476 C62.3355254,547.939908 69.3895695,464.443045 69.3895695,464.443045 Z" id="Path" fill="#00A0D6"></path>
                    <path d="M205.904374,291.245442 L169.30763,602.545343 C198.126893,599.733664 226.00479,593.726962 252.588681,584.88919 L205.904374,291.245442 Z" id="Path" fill="#53CDFF"></path>
                    <g id="Group" transform="translate(205.914686, 291.245442)" fill="#FFFFFF">
                        <path d="M0.138849416,0.094007455 L18.9161238,52.563597 C20.6563174,57.4266175 23.6967764,61.7270855 27.7116838,65.0024247 L44.8884005,79.0125198 L20.0647417,124.870252 L0.138849416,0.094007455 Z" id="Path"></path>
                        <path d="M93.8900898,155.451026 C93.8900898,155.451026 61.2318062,274.867353 35.1709433,219.477564 L27.7402116,172.942381 L93.8900898,155.451026 Z" id="Path"></path>
                    </g>
                    <path d="M299.720265,446.667501 L249.67228,459.895427 C248.833764,477.442097 249.180892,508.107716 259.979415,524.606422 C280.626744,516.454103 299.720265,446.667501 299.720265,446.667501 Z" id="Path" fill="#CBD0D1"></path>
                    <g id="Group" transform="translate(225.590978, 345.939422)">
                        <path d="M42.1445333,109.171007 L23.8805871,114.003966 C23.0436583,131.536867 23.3901288,162.178423 34.1682119,178.664183 C34.2912014,178.614958 34.4156908,178.5538 34.5386803,178.500101 C32.7553321,155.834419 37.3644399,129.266569 42.1445333,109.171007 Z" id="Path" fill="#BBBEBF"></path>
                        <path d="M35.6395867,4.49120443 L0.0866112758,70.2164627 L7.75545886,118.271588 L38.4023516,133.186636 C45.2807665,138.053903 54.8934487,135.820897 58.8906086,128.426768 L104.533226,46.5752385 C107.901939,40.3445998 106.138089,32.596949 100.399577,28.4173345 L47.3295922,1.86141844 C43.4374233,-0.974215796 37.9238923,0.266840325 35.6395867,4.49120443 Z" id="Path" fill="#19A1D8"></path>
                    </g>
                    <path d="M288.411247,362.552608 C289.501634,360.533712 291.055062,358.952541 292.856442,357.829939 L273.096534,347.920076 C269.220432,345.091239 263.731153,346.329972 261.456277,350.546428 L226.048566,416.14716 L233.66634,463.987261 L288.411247,362.552608 Z" id="Path" fill="#67D3FF"></path>
                    <g id="Group" transform="translate(276.383267, 412.483764)" fill="#FFFFFF">
                        <path d="M43.2617455,20.8230821 C45.1223286,18.2101758 44.5066068,14.552405 41.8946344,12.6922184 L26.1825468,1.50575975 C23.5705743,-0.354426843 19.9105331,0.261163753 18.0499499,2.87257955 L18.0499499,2.87257955 C16.1893668,5.48399535 16.8050887,9.14325665 19.4170611,11.0034432 L22.6104657,13.2779983 L35.1291487,22.1913924 C37.7411211,24.0500885 41.4011624,23.4344979 43.2617455,20.8230821 Z" id="Path"></path>
                        <path d="M40.2889869,25.8655591 L39.0649976,24.9935966 L39.0649976,24.9935966 L19.6883961,11.1987032 C17.0764237,9.33851662 13.4163824,9.95410722 11.5557993,12.565523 C9.69521621,15.1784293 10.310938,18.8362001 12.9229105,20.6963867 L14.1468998,21.5683492 L14.1468998,21.5683492 L33.5235013,35.3647331 C36.1369645,37.2249197 39.7970058,36.6093291 41.6560981,33.9979133 C43.518172,31.3835164 42.9024502,27.7257457 40.2889869,25.8655591 Z" id="Path"></path>
                        <path d="M34.8921032,43.4955968 L34.8921032,43.4955968 C33.0315201,46.1085031 29.3714789,46.7226032 26.7595064,44.8624166 L7.38290499,31.0660327 C4.77093256,29.2058461 4.15521075,25.5465848 6.01579385,22.935169 L6.01579385,22.935169 C7.87637695,20.3237532 11.5364182,19.7081626 14.1483907,21.5683492 L33.5249921,35.3647331 C36.1369645,37.2234292 36.7526864,40.8826905 34.8921032,43.4955968 Z" id="Path"></path>
                        <path d="M26.8832471,52.1481474 C28.7438302,49.5352411 28.1281084,45.8774703 25.516136,44.0172837 L9.65049065,32.7220161 C7.03851822,30.8618295 3.37847694,31.4774201 1.51789383,34.0888359 L1.51789383,34.0888359 C-0.342689272,36.7002517 0.27303254,40.359513 2.88500497,42.2196996 L9.18236317,46.7032262 L18.7506503,53.5149672 C21.3626227,55.3751538 25.022664,54.7610538 26.8832471,52.1481474 Z" id="Path"></path>
                    </g>
                    <path d="M129.955046,82.5036457 C129.57163,82.45585 129.158023,82.6559944 129.059905,83.1234958 L119.888106,127.256825 L128.262882,131.364266 C128.79574,131.625649 129.375393,131.736176 129.953537,131.719746 L129.953537,82.5036457 L129.955046,82.5036457 Z" id="Path" fill="#53CDFF"></path>
                </g>
                <path d="M97.194162,15.5047398 C78.3044471,15.5047398 62.2938446,28.2740556 57.3316272,45.5750446 C53.018943,36.3983362 43.6732045,29.9692746 32.9085352,29.9692746 C18.1045767,29.9692746 5.93532963,42.1036813 5.93532963,56.8652561 C5.93532963,71.626815 18.1045767,83.7667582 32.9085352,83.7667582 C43.6732045,83.7667582 53.018943,77.3337716 57.3316272,68.1554677 C62.2938446,85.457749 78.3044471,98.2313091 97.194162,98.2313091 C115.944187,98.2313091 131.873152,85.6503933 136.962274,68.5432613 C141.35466,77.5132049 150.584725,83.7667582 161.196487,83.7667582 C176.000446,83.7667582 188.175245,71.626815 188.175245,56.8652561 C188.175245,42.1036813 176.000446,29.9692746 161.196487,29.9692746 C150.584725,29.9692746 141.35466,36.2189029 136.962274,45.1872509 C131.873152,28.0814432 115.944187,15.5047398 97.194162,15.5047398 Z M97.194162,31.2933095 C111.453763,31.2933095 122.845115,42.6465285 122.845115,56.8652561 C122.845115,71.0839837 111.453763,82.4427393 97.194162,82.4427393 C82.9346414,82.4427393 71.5488249,71.0839837 71.5488249,56.8652561 C71.5488249,42.6465285 82.9346414,31.2933095 97.194162,31.2933095 Z M32.9085352,45.7578604 C39.1559621,45.7578604 44.053375,50.6356837 44.053375,56.8652561 C44.053375,63.0948126 39.1559621,67.9781883 32.9085352,67.9781883 C26.6610763,67.9781883 21.7692318,63.0948126 21.7692318,56.8652561 C21.7692318,50.6356837 26.6610763,45.7578604 32.9085352,45.7578604 Z M161.196487,45.7578604 C167.443962,45.7578604 172.341327,50.6356837 172.341327,56.8652561 C172.341327,63.0948126 167.44393,67.9781883 161.196487,67.9781883 C154.949061,67.9781883 150.057216,63.0948126 150.057216,56.8652561 C150.057216,50.6356837 154.949093,45.7578604 161.196487,45.7578604 Z" id="XMLID_107_" fill="#FFFFFF" transform="translate(97.055288, 56.868024) rotate(-730.000000) translate(-97.055288, -56.868024) "></path>
                <path d="M107.952236,85.8749004 L107.952236,85.8749004 C106.523771,85.3997442 105.693522,83.7022022 106.105707,82.102436 L109.700483,68.1704459 C110.113443,66.5702764 111.619665,65.6505013 113.047764,66.1247842 L113.047764,66.1247842 C114.476229,66.5999404 115.306478,68.2974824 114.894293,69.8972486 L111.299517,83.8292387 C110.886557,85.4294082 109.3807,86.3500566 107.952236,85.8749004 Z" id="Path" fill="#E0E2E2"></path>
                <g id="Group" transform="translate(77.000000, 70.000000)" fill="#E0E2E2">
                    <path d="M33.0338589,18.4664557 L33.0338589,18.4664557 C31.9219657,19.7771413 30.0344152,19.9550723 28.8384257,18.8634102 L18.4253474,9.35094445 C17.2293839,8.25829931 17.1610078,6.29264091 18.2719603,4.98198135 L18.2719603,4.98198135 C19.3838534,3.67129577 21.2714039,3.4933648 22.4673934,4.58502692 L32.8804717,14.0974926 C34.0764352,15.1901378 34.1457521,17.1557702 33.0338589,18.4664557 Z" id="Path" transform="translate(25.653094, 11.724219) rotate(65.000000) translate(-25.653094, -11.724219) "></path>
                    <path d="M25.7312679,20.8838494 L25.7312679,20.8838494 C24.6193747,22.194535 22.7318242,22.3724659 21.5358347,21.2808038 L11.1236971,11.7683121 C9.92773361,10.6756669 9.85935749,8.71000854 10.97031,7.39934898 L10.97031,7.39934898 C12.0822032,6.0886634 13.9697536,5.91073242 15.1657431,7.00239455 L25.5788214,16.5148603 C26.7738443,17.6075314 26.8431611,19.5731638 25.7312679,20.8838494 Z" id="Path" transform="translate(18.351024, 14.141599) rotate(65.000000) translate(-18.351024, -14.141599) "></path>
                    <path d="M18.5452226,22.9314827 L18.5452226,22.9314827 C17.4333294,24.2421683 15.545779,24.4200993 14.3497894,23.3284372 L3.93765185,13.8159454 C2.74168832,12.7233003 2.6733122,10.7576419 3.78426469,9.44698231 L3.78426469,9.44698231 C4.89615789,8.13629673 6.78370834,7.95836576 7.97969785,9.05002788 L18.3927762,18.5624936 C19.587799,19.6551648 19.6561491,21.6218062 18.5452226,22.9314827 Z" id="Path" transform="translate(11.164789, 16.189233) rotate(65.000000) translate(-11.164789, -16.189233) "></path>
                </g>
            </g>
        </g>
    </g>
</svg>