<?xml version="1.0" encoding="UTF-8"?>
<svg width="1816px" height="389px" viewBox="0 0 1816 389" version="1.1" xmlns="http://www.w3.org/2000/svg" xmlns:xlink="http://www.w3.org/1999/xlink">
    <!-- Generator: Sketch 53.2 (72643) - https://sketchapp.com -->
    <title>grab data</title>
    <desc>Created with Sketch.</desc>
    <defs>
        <linearGradient x1="51.981955%" y1="-27.3001105%" x2="46.4107962%" y2="32.6124553%" id="linearGradient-1">
            <stop stop-color="#CCCCCC" offset="0%"></stop>
            <stop stop-color="#FFFFFF" offset="100%"></stop>
        </linearGradient>
        <linearGradient x1="-82.6525281%" y1="0%" x2="-82.6525281%" y2="263.564566%" id="linearGradient-2">
            <stop stop-color="#DCDBDB" offset="0%"></stop>
            <stop stop-color="#FFFFFF" offset="100%"></stop>
        </linearGradient>
        <linearGradient x1="-82.6525281%" y1="0%" x2="-82.6525281%" y2="263.564566%" id="linearGradient-3">
            <stop stop-color="#DCDBDB" offset="0%"></stop>
            <stop stop-color="#FFFFFF" offset="100%"></stop>
        </linearGradient>
        <linearGradient x1="-82.6525281%" y1="0%" x2="-82.6525281%" y2="263.564566%" id="linearGradient-4">
            <stop stop-color="#DCDBDB" offset="0%"></stop>
            <stop stop-color="#FFFFFF" offset="100%"></stop>
        </linearGradient>
        <linearGradient x1="60.2711798%" y1="44.8901269%" x2="30.1611369%" y2="92.1426227%" id="linearGradient-5">
            <stop stop-color="#E6E6E6" offset="0%"></stop>
            <stop stop-color="#FFFFFF" offset="100%"></stop>
        </linearGradient>
    </defs>
    <g id="Page-1" stroke="none" stroke-width="1" fill="none" fill-rule="evenodd">
        <g id="Nextcloud-Website" transform="translate(-1300.000000, -13110.000000)">
            <g id="grab-data" transform="translate(1300.000000, 13077.000000)">
                <g id="Group-19" transform="translate(736.000000, 0.000000)" fill-rule="nonzero">
                    <path d="M280.306941,196.377567 C280.282865,196.136017 280.258789,195.906545 280.222675,195.664995 C279.957837,193.780906 279.404066,191.933053 278.585439,190.181821 L264.367818,159.964026 C264.187238,159.577547 263.982581,159.203147 263.765885,158.840823 C263.476957,158.369803 263.151911,157.922938 262.814827,157.500228 C262.730556,157.391532 262.634246,157.294912 262.549975,157.186216 C262.441627,157.065441 262.321239,156.944667 262.21289,156.823893 C261.731341,156.32872 261.201635,155.869779 260.647851,155.471226 C259.468051,154.613734 258.131744,153.985715 256.699123,153.611325 C256.434269,153.538863 256.169415,153.478477 255.892522,153.43017 C255.615628,153.381862 255.350774,153.345632 255.073881,153.309402 C254.66456,153.261096 254.2432,153.236944 253.82184,153.236948 C230.145423,153.583379 218.307212,153.973989 218.307208,154.408779 L244.467414,180.049094 C245.334211,180.049087 246.032459,180.749576 246.032451,181.619156 L246.032357,192.235284 C246.03235,193.104865 245.33409,193.805366 244.479331,193.805374 C238.086699,193.80543 231.850557,195.617111 226.445081,199.047171 C221.051643,202.47723 216.753729,207.35658 214.020858,213.153807 L205.31653,239.906755 L205.292452,239.967143 C204.91924,240.752184 203.992246,241.090363 203.209723,240.715967 C202.427201,240.341571 202.090121,239.411606 202.463333,238.626565 L211.203778,211.813229 C214.18947,205.472512 218.88467,200.14629 224.783742,196.390134 C230.237374,192.923842 252.00243,190.012521 258.43118,189.734682 L256.231475,131.73019 C253.354188,131.730216 210.695014,132.93392 208.877164,130.965303 C207.60101,135.011278 181.685147,139.038711 179.867298,137.070094 C179.016528,139.767411 172.174436,140.901008 159.34102,140.470886 C157.575322,140.470902 154.966427,167.043717 151.514337,220.189333 C151.514104,246.648096 165.624285,255.872374 165.479805,257.418296 L168.242439,418.30185 L281.876913,410.355753 C255.901473,305.7971 243.463533,252.942074 244.563092,251.790675 L275.106022,211.546961 C276.671087,209.904406 277.923145,208.020304 278.814038,205.979198 C278.874233,205.846344 278.934429,205.701414 278.982585,205.568561 C279.524346,204.24003 279.909601,202.851114 280.150391,201.413888 C280.4273,199.723035 280.47547,198.032184 280.306941,196.377567 Z" id="Path" stroke="#0095D2" stroke-width="7.19999957" fill="url(#linearGradient-1)" transform="translate(216.695625, 274.633576) rotate(4.000000) translate(-216.695625, -274.633576) "></path>
                    <path d="M212.766189,33.5013279 C171.392532,33.5013279 136.324921,61.5028774 125.456303,99.4418323 C116.010342,79.3184321 95.5406111,65.2202855 71.9630325,65.2202855 C39.5383026,65.2202855 12.8843133,91.8295567 12.8843133,124.199887 C12.8843133,156.570182 39.5383026,183.191594 71.9630325,183.191594 C95.5406111,183.191594 116.010342,169.08484 125.456303,148.957941 C136.324921,186.89973 171.392532,214.910587 212.766189,214.910587 C253.833888,214.910587 288.72269,187.322176 299.869264,149.808325 C309.489793,169.478316 329.706167,183.191594 352.948838,183.191594 C385.373568,183.191594 412.039719,156.570182 412.039719,124.199887 C412.039719,91.8295567 385.373568,65.2202855 352.948838,65.2202855 C329.706167,65.2202855 309.489793,78.9249567 299.869264,98.5914482 C288.72269,61.0805019 253.833888,33.5013279 212.766189,33.5013279 Z M212.766189,68.1237322 C243.998626,68.1237322 268.948814,93.0199544 268.948814,124.199887 C268.948814,155.379819 243.998626,180.288182 212.766189,180.288182 C181.533928,180.288182 156.595866,155.379819 156.595866,124.199887 C156.595866,93.0199544 181.533928,68.1237322 212.766189,68.1237322 Z M71.9630325,99.8427252 C85.646611,99.8427252 96.3732887,110.539196 96.3732887,124.199887 C96.3732887,137.860543 85.646611,148.569189 71.9630325,148.569189 C58.2793838,148.569189 47.5649025,137.860543 47.5649025,124.199887 C47.5649025,110.539196 58.2793838,99.8427252 71.9630325,99.8427252 Z M352.948838,99.8427252 C366.632522,99.8427252 377.359095,110.539196 377.359095,124.199887 C377.359095,137.860543 366.632452,148.569189 352.948838,148.569189 C339.26526,148.569189 328.550778,137.860543 328.550778,124.199887 C328.550778,110.539196 339.26533,99.8427252 352.948838,99.8427252 Z" id="XMLID_107_" fill="#FFFFFF" transform="translate(212.462016, 124.205957) rotate(-730.000000) translate(-212.462016, -124.205957) "></path>
                    <path d="M265.127984,148.203117 C265.200568,148.214854 265.261055,148.22659 265.333639,148.250062 C265.515099,148.297006 265.708657,148.332215 265.890117,148.379159 C266.10787,148.43784 266.313525,148.496521 266.531277,148.555201 C266.724835,148.613882 266.93049,148.684299 267.124048,148.754716 C267.172437,148.778188 267.232924,148.789924 267.281313,148.813396 C267.499066,148.895549 267.704721,148.977702 267.922473,149.059855 C268.079739,149.130272 268.237004,149.200689 268.39427,149.271106 C268.57573,149.353259 268.745093,149.435411 268.926554,149.529301 L268.926554,149.529301 L268.926554,132.206767 C268.926554,128.533357 265.841728,125.540643 262.055256,125.540643 L250.986176,125.540643 C247.199703,125.540643 244.114878,128.533357 244.114878,132.206767 L244.114878,147.886242 L262.067353,147.886242 C263.107726,147.897978 264.123904,148.003603 265.127984,148.203117 Z" id="Path" fill="url(#linearGradient-2)"></path>
                    <path d="M196.560563,181.514178 L207.629644,181.514178 C211.416116,181.514178 214.500942,178.431965 214.500942,174.648699 L214.500942,170.853346 L214.500942,150.825005 L214.500942,149.25368 L214.500942,147.682356 L214.500942,131.606499 C214.500942,127.823234 211.416116,124.741021 207.629644,124.741021 L196.560563,124.741021 C192.774091,124.741021 189.689266,127.823234 189.689266,131.606499 L189.689266,138.653285 L189.689266,147.525224 L189.689266,149.096548 L189.689266,150.667872 L189.689266,174.648699 C189.689266,178.444052 192.761994,181.514178 196.560563,181.514178 Z" id="Path" fill="url(#linearGradient-3)"></path>
                    <path d="M222.972993,175.916824 L234.042073,175.916824 C237.828545,175.916824 240.913371,172.834611 240.913371,169.051346 L240.913371,165.255993 L240.913371,145.227651 L240.913371,143.656327 L240.913371,142.085003 L240.913371,126.009146 C240.913371,122.22588 237.828545,119.143667 234.042073,119.143667 L222.972993,119.143667 C219.186521,119.143667 216.101695,122.22588 216.101695,126.009146 L216.101695,133.055931 L216.101695,141.92787 L216.101695,143.499194 L216.101695,145.070519 L216.101695,169.051346 C216.101695,172.846698 219.174423,175.916824 222.972993,175.916824 Z" id="Path" fill="url(#linearGradient-3)"></path>
                    <path d="M189.627692,176.889472 L188.578596,137.192389 C188.477793,133.378079 185.356695,130.338374 181.541054,130.338374 L174.636459,130.338374 C167.920677,130.338374 162.47646,135.782591 162.47646,142.498374 L162.47646,176.708841 C162.47646,181.180648 166.011255,184.852628 170.479822,185.022814 L180.993959,185.423245 C185.585639,185.598119 189.449694,182.01759 189.624569,177.42591 C189.631376,177.247177 189.632417,177.068272 189.627692,176.889472 Z" id="Path" fill="url(#linearGradient-4)"></path>
                    <path d="M286.328141,194.356036 C286.302572,194.098652 286.277003,193.854138 286.238649,193.596754 C285.957387,191.58916 285.36927,189.620177 284.499866,187.754151 L269.400421,151.727808 C269.208641,151.315996 268.991289,150.917052 268.761152,150.530979 C268.454302,150.029083 268.109095,149.552926 267.751102,149.102507 C267.661604,148.986685 267.55932,148.883733 267.469821,148.767911 C267.354752,148.63922 267.226897,148.510529 267.111828,148.381839 C266.600408,147.854207 266.037845,147.365183 265.44971,146.940505 C264.196727,146.026805 262.777529,145.357622 261.256042,144.958693 C260.974759,144.881481 260.693475,144.817138 260.399406,144.765664 C260.105337,144.714191 259.824053,144.675586 259.529984,144.636982 C259.095273,144.58551 258.647775,144.559776 258.200278,144.559781 L239.226387,144.55999 L237.564253,144.560008 L235.90212,144.560026 L221.722844,144.560182 C221.045205,144.56019 220.482631,145.113572 220.482623,145.808509 L220.482492,157.738268 C220.482415,164.739118 225.149066,174.499517 231.529081,176.352614 C232.321788,176.584251 233.140067,176.751541 233.971133,176.854486 C234.559272,176.918826 235.160196,176.957427 235.773907,176.95742 L236.32369,176.957414 L248.265478,176.957282 C249.186045,176.957272 249.927604,177.703678 249.927593,178.630261 L249.927469,189.942297 C249.927459,190.868881 249.185883,191.615303 248.278103,191.615313 C241.488927,191.615388 234.865944,193.545842 229.125151,197.200761 C223.397144,200.85568 218.832613,206.054891 215.930204,212.232144 L206.685872,240.73882 L206.6603,240.803166 C206.396057,241.360835 204.589204,247.56104 201.239741,259.403781 L245.899228,259.41034 C245.745818,257.763082 244.364983,256.501915 242.715635,256.501933 L212.925091,256.502261 L241.948488,257.249629 C244.390553,256.567534 246.615269,255.241981 248.366923,253.401664 L280.804566,210.519825 C282.466718,208.769594 283.796447,206.761983 284.742608,204.587076 C284.806538,204.445514 284.870468,204.291083 284.921612,204.149521 C285.496982,202.733901 285.906138,201.253938 286.161868,199.722499 C286.455958,197.920806 286.50712,196.119116 286.328141,194.356036 Z" id="Path" fill="url(#linearGradient-5)" transform="translate(243.835768, 201.985060) rotate(5.000000) translate(-243.835768, -201.985060) "></path>
                </g>
                <path d="M1711.74554,338.193312 C1680.317,338.193312 1652.13659,349.275874 1633.02228,366.804571 C1614.92121,325.038117 1573.40057,295.828711 1525.0737,295.828711 C1491.67694,295.828711 1461.53058,309.778065 1440.11746,332.181077 C1413.76424,298.580457 1372.84456,277 1326.8963,277 C1267.67347,277 1216.80446,312.850967 1194.71195,364.082254 C1175.71544,348.136299 1148.86069,338.193312 1119.0918,338.193312 C1087.66326,338.193312 1059.48285,349.275874 1040.36855,366.804571 C1022.26748,325.038117 980.746837,295.828711 932.419964,295.828711 C899.023199,295.828711 868.876846,309.778065 847.463722,332.181077 C821.110503,298.580457 780.190821,277 734.242565,277 C675.567149,277 625.091833,312.191269 602.678192,362.665576 C583.798336,347.549553 557.663321,338.193312 528.786139,338.193312 C497.357601,338.193312 469.177187,349.275874 450.062884,366.804571 C431.961813,325.038117 390.441174,295.828711 342.1143,295.828711 C308.717536,295.828711 278.571183,309.778065 257.158059,332.181077 C230.80484,298.580457 189.885158,277 143.936902,277 C64.4427461,277 0,341.594118 0,421.275 L1816,422 C1784.88246,366.128874 1750.13097,338.193312 1711.74554,338.193312 Z" id="Path" fill="#FFFFFF"></path>
            </g>
        </g>
    </g>
</svg>