<?xml version="1.0" encoding="UTF-8"?>
<svg width="202px" height="278px" viewBox="0 0 202 278" version="1.1" xmlns="http://www.w3.org/2000/svg" xmlns:xlink="http://www.w3.org/1999/xlink">
    <!-- Generator: Sketch 53.2 (72643) - https://sketchapp.com -->
    <title>Combined Shape</title>
    <desc>Created with Sketch.</desc>
    <defs>
        <linearGradient x1="37.995274%" y1="7.6681422%" x2="63.9872462%" y2="93.289807%" id="linearGradient-1">
            <stop stop-color="#002092" offset="0%"></stop>
            <stop stop-color="#18B3C1" offset="100%"></stop>
        </linearGradient>
    </defs>
    <g id="Page-1" stroke="none" stroke-width="1" fill="none" fill-rule="evenodd">
        <g id="Nextcloud-Website" transform="translate(-2375.000000, -2788.000000)" fill="url(#linearGradient-1)">
            <path d="M2391,2788 L2391,2808 L2562,2808 L2562,2788 L2573,2788 C2575.20914,2788 2577,2789.79086 2577,2792 L2577,2983 C2577,2980.79086 2575.20914,2979 2573,2979 L2552,2979 C2530,3009 2499,3009 2477,3009 L2457.10658,3029.84073 C2456.3963,3030.58483 2456,3031.57396 2456,3032.60263 L2456,3062 C2456,3064.20914 2454.20914,3066 2452,3066 L2405,3066 C2402.79086,3066 2401,3064.20914 2401,3062 L2401,3037 C2401,3034.79086 2399.20914,3033 2397,3033 L2379,3033 C2376.79086,3033 2375,3031.20914 2375,3029 L2375,2792 C2375,2789.79086 2376.79086,2788 2379,2788 L2391,2788 Z M2479,2992 C2519.86907,2992 2553,2958.86907 2553,2918 C2553,2877.13093 2519.86907,2844 2479,2844 C2438.13093,2844 2405,2877.13093 2405,2918 C2405,2958.86907 2438.13093,2992 2479,2992 Z M2478.5,2939 C2467.17816,2939 2458,2929.82184 2458,2918.5 C2458,2907.17816 2467.17816,2898 2478.5,2898 C2489.82184,2898 2499,2907.17816 2499,2918.5 C2499,2929.82184 2489.82184,2939 2478.5,2939 Z" id="Combined-Shape"></path>
        </g>
    </g>
</svg>