<?xml version="1.0" encoding="UTF-8"?>
<svg width="202px" height="264px" viewBox="0 0 202 264" version="1.1" xmlns="http://www.w3.org/2000/svg" xmlns:xlink="http://www.w3.org/1999/xlink">
    <!-- Generator: Sketch 53.2 (72643) - https://sketchapp.com -->
    <title>Combined Shape</title>
    <desc>Created with Sketch.</desc>
    <g id="Page-1" stroke="none" stroke-width="1" fill="none" fill-rule="evenodd">
        <g id="Nextcloud-Website" transform="translate(-2375.000000, -2795.000000)" fill="#50E3C2" fill-rule="nonzero">
            <path d="M2489,2962 C2506.67311,2962 2521,2947.2254 2521,2929 M2536,2929 C2536,2956.06195 2514.50967,2978 2488,2978 M2404,2797 L2408,2797 L2408,2808 L2404,2808 L2404,2797 Z M2409,2797 L2413,2797 L2413,2808 L2409,2808 L2409,2797 Z M2414,2795 L2418,2795 L2418,2808 L2414,2808 L2414,2795 Z M2419,2795 L2423,2795 L2423,2808 L2419,2808 L2419,2795 Z M2424,2797 L2428,2797 L2428,2808 L2424,2808 L2424,2797 Z M2429,2795 L2433,2795 L2433,2808 L2429,2808 L2429,2795 Z M2434,2797 L2438,2797 L2438,2808 L2434,2808 L2434,2797 Z M2439,2795 L2443,2795 L2443,2808 L2439,2808 L2439,2795 Z M2444,2797 L2448,2797 L2448,2808 L2444,2808 L2444,2797 Z M2449,2797 L2453,2797 L2453,2808 L2449,2808 L2449,2797 Z M2454,2795 L2458,2795 L2458,2808 L2454,2808 L2454,2795 Z M2459,2797 L2463,2797 L2463,2808 L2459,2808 L2459,2797 Z M2464,2797 L2468,2797 L2468,2808 L2464,2808 L2464,2797 Z M2469,2797 L2473,2797 L2473,2808 L2469,2808 L2469,2797 Z M2474,2795 L2478,2795 L2478,2808 L2474,2808 L2474,2795 Z M2479,2795 L2483,2795 L2483,2808 L2479,2808 L2479,2795 Z M2510,2795 L2514,2795 L2514,2808 L2510,2808 L2510,2795 Z M2515,2797 L2519,2797 L2519,2808 L2515,2808 L2515,2797 Z M2520,2797 L2524,2797 L2524,2808 L2520,2808 L2520,2797 Z M2525,2795 L2529,2795 L2529,2808 L2525,2808 L2525,2795 Z M2530,2795 L2534,2795 L2534,2808 L2530,2808 L2530,2795 Z M2535,2797 L2539,2797 L2539,2808 L2535,2808 L2535,2797 Z M2540,2795 L2544,2795 L2544,2808 L2540,2808 L2540,2795 Z M2545,2795 L2549,2795 L2549,2808 L2545,2808 L2545,2795 Z M2575,2851 L2563.5,2851 C2558.80558,2851 2555,2847.19442 2555,2842.5 C2555,2837.80558 2558.80558,2834 2563.5,2834 L2576,2834 L2577,2834 L2577,3058 L2576,3058 L2563.5,3058 C2558.80558,3058 2555,3054.19442 2555,3049.5 C2555,3044.80558 2558.80558,3041 2563.5,3041 L2575,3041 L2575,2851 Z M2375,2833 L2388.5,2833 C2393.19442,2833 2397,2836.80558 2397,2841.5 C2397,2846.19442 2393.19442,2850 2388.5,2850 L2377,2850 L2377,3042 L2388.5,3042 C2393.19442,3042 2397,3045.80558 2397,3050.5 C2397,3055.19442 2393.19442,3059 2388.5,3059 L2375,3059 L2375,2833 Z M2385,2845 C2386.65685,2845 2388,2843.65685 2388,2842 C2388,2840.34315 2386.65685,2839 2385,2839 C2383.34315,2839 2382,2840.34315 2382,2842 C2382,2843.65685 2383.34315,2845 2385,2845 Z M2385,3054 C2386.65685,3054 2388,3052.65685 2388,3051 C2388,3049.34315 2386.65685,3048 2385,3048 C2383.34315,3048 2382,3049.34315 2382,3051 C2382,3052.65685 2383.34315,3054 2385,3054 Z M2566,2846 C2567.65685,2846 2569,2844.65685 2569,2843 C2569,2841.34315 2567.65685,2840 2566,2840 C2564.34315,2840 2563,2841.34315 2563,2843 C2563,2844.65685 2564.34315,2846 2566,2846 Z M2566,3053 C2567.65685,3053 2569,3051.65685 2569,3050 C2569,3048.34315 2567.65685,3047 2566,3047 C2564.34315,3047 2563,3048.34315 2563,3050 C2563,3051.65685 2564.34315,3053 2566,3053 Z" id="Combined-Shape"></path>
        </g>
    </g>
</svg>