<?xml version="1.0" encoding="UTF-8"?>
<svg width="114px" height="52px" viewBox="0 0 114 52" version="1.1" xmlns="http://www.w3.org/2000/svg" xmlns:xlink="http://www.w3.org/1999/xlink">
    <!-- Generator: Sketch 53.2 (72643) - https://sketchapp.com -->
    <title>Nextcloud</title>
    <desc>Created with Sketch.</desc>
    <g id="Page-1" stroke="none" stroke-width="1" fill="none" fill-rule="evenodd">
        <g id="Nextcloud-Website" transform="translate(-1532.000000, -855.000000)" fill="#FFFFFF" fill-rule="nonzero">
            <path d="M1589.0328,854.99997 C1577.22755,854.99997 1567.22162,863.00315 1564.12045,873.84656 C1561.42521,868.09505 1555.58453,864.06563 1548.85708,864.06563 C1539.60525,864.06563 1532,871.67088 1532,880.92271 C1532,890.17453 1539.60525,897.78325 1548.85708,897.78325 C1555.58453,897.78325 1561.42521,893.75137 1564.12045,887.99886 C1567.22162,898.84308 1577.22755,906.84892 1589.0328,906.84892 C1600.75075,906.84892 1610.70566,898.96382 1613.88614,888.24191 C1616.63119,893.86383 1622.39958,897.78325 1629.03147,897.78325 C1638.2833,897.78325 1645.89202,890.17453 1645.89202,880.92271 C1645.89202,871.67088 1638.2833,864.06563 1629.03147,864.06563 C1622.39958,864.06563 1616.63119,867.98259 1613.88614,873.60351 C1610.70566,862.88243 1600.75075,854.99997 1589.0328,854.99997 Z M1589.0328,864.89547 C1597.94443,864.89547 1605.06353,872.01111 1605.06353,880.92271 C1605.06353,889.83431 1597.94443,896.95342 1589.0328,896.95342 C1580.12122,896.95342 1573.00558,889.83431 1573.00558,880.92271 C1573.00558,872.01111 1580.12122,864.89547 1589.0328,864.89547 Z M1548.85708,873.96114 C1552.76145,873.96114 1555.82212,877.01832 1555.82212,880.92271 C1555.82212,884.82709 1552.76145,887.88775 1548.85708,887.88775 C1544.95269,887.88775 1541.8955,884.82709 1541.8955,880.92271 C1541.8955,877.01832 1544.95269,873.96114 1548.85708,873.96114 Z M1629.03147,873.96114 C1632.93587,873.96114 1635.99651,877.01832 1635.99651,880.92271 C1635.99651,884.82709 1632.93585,887.88775 1629.03147,887.88775 C1625.1271,887.88775 1622.06991,884.82709 1622.06991,880.92271 C1622.06991,877.01832 1625.12712,873.96114 1629.03147,873.96114 Z" id="Nextcloud"></path>
        </g>
    </g>
</svg>