<svg xmlns="http://www.w3.org/2000/svg" width="756" height="689" viewBox="0 0 756 689">
    <title>seal-footer</title>
    <path d="M409.25,609.4l89.08-128.6,2.05-2.9a131.43,131.43,0,1,0-240.53-73.3c0,1.6,0,3.2.1,4.9h79.56c-.15-1.61-.23-3.3-.23-4.9a52.06,52.06,0,0,1,52-52c28.69,0,53.4,21.7,52,52-.6,13.3-12.29,33.9-16.73,40.4S257.69,688.8,257.69,688.8H482.63l55-79.4ZM612.54,273.2h-.88l-55,79.4h69.1V688.8h79.42V273.2Zm25.35,577.9c-204.4,86.36-440.11-9.32-526.48-213.72s9.32-440.11,213.72-526.48A401.76,401.76,0,0,1,701.2,144.6l45.27-65.2A479.28,479.28,0,0,0,481.43,0C215.54,0,0,215.3,0,481S215.54,962,481.43,962A479.71,479.71,0,0,0,756,876.1L710.74,811a402.49,402.49,0,0,1-72.85,40.1Z" style="fill: #beaf87"/>
</svg>
