<?xml version="1.0" encoding="UTF-8"?>
<svg width="37px" height="2701px" viewBox="0 0 37 2701" version="1.1" xmlns="http://www.w3.org/2000/svg" xmlns:xlink="http://www.w3.org/1999/xlink">
    <!-- Generator: Sketch 53.2 (72643) - https://sketchapp.com -->
    <title>Combined Shape</title>
    <desc>Created with Sketch.</desc>
    <g id="Page-1" stroke="none" stroke-width="1" fill="none" fill-rule="evenodd" opacity="0.400000006" stroke-linecap="square">
        <g id="Nextcloud-Website" transform="translate(-1513.000000, -2359.000000)" stroke="#FFFFFF">
            <path d="M1513,2369.5 L1529.88053,2369.5 L1513,2369.5 Z M1513,2379.5 L1529.88053,2379.5 L1513,2379.5 Z M1513,2389.5 L1529.88053,2389.5 L1513,2389.5 Z M1513,2399.5 L1529.88053,2399.5 L1513,2399.5 Z M1513,2409.5 L1529.88053,2409.5 L1513,2409.5 Z M1513,2419.5 L1529.88053,2419.5 L1513,2419.5 Z M1513,2429.5 L1529.88053,2429.5 L1513,2429.5 Z M1513,2439.5 L1529.88053,2439.5 L1513,2439.5 Z M1513,2449.5 L1529.88053,2449.5 L1513,2449.5 Z M1513,2459.5 L1550,2459.5 L1513,2459.5 Z M1513,2359.5 L1550,2359.5 L1513,2359.5 Z M1513,2469.5 L1529.88053,2469.5 L1513,2469.5 Z M1513,2479.5 L1529.88053,2479.5 L1513,2479.5 Z M1513,2489.5 L1529.88053,2489.5 L1513,2489.5 Z M1513,2499.5 L1529.88053,2499.5 L1513,2499.5 Z M1513,2509.5 L1529.88053,2509.5 L1513,2509.5 Z M1513,2519.5 L1529.88053,2519.5 L1513,2519.5 Z M1513,2529.5 L1529.88053,2529.5 L1513,2529.5 Z M1513,2539.5 L1529.88053,2539.5 L1513,2539.5 Z M1513,2549.5 L1529.88053,2549.5 L1513,2549.5 Z M1513,2559.5 L1550,2559.5 L1513,2559.5 Z M1513,2569.5 L1529.88053,2569.5 L1513,2569.5 Z M1513,2579.5 L1529.88053,2579.5 L1513,2579.5 Z M1513,2589.5 L1529.88053,2589.5 L1513,2589.5 Z M1513,2599.5 L1529.88053,2599.5 L1513,2599.5 Z M1513,2609.5 L1529.88053,2609.5 L1513,2609.5 Z M1513,2619.5 L1529.88053,2619.5 L1513,2619.5 Z M1513,2629.5 L1529.88053,2629.5 L1513,2629.5 Z M1513,2639.5 L1529.88053,2639.5 L1513,2639.5 Z M1513,2649.5 L1529.88053,2649.5 L1513,2649.5 Z M1513,2659.5 L1550,2659.5 L1513,2659.5 Z M1513,2669.5 L1529.88053,2669.5 L1513,2669.5 Z M1513,2679.5 L1529.88053,2679.5 L1513,2679.5 Z M1513,2689.5 L1529.88053,2689.5 L1513,2689.5 Z M1513,2699.5 L1529.88053,2699.5 L1513,2699.5 Z M1513,2709.5 L1529.88053,2709.5 L1513,2709.5 Z M1513,2719.5 L1529.88053,2719.5 L1513,2719.5 Z M1513,2729.5 L1529.88053,2729.5 L1513,2729.5 Z M1513,2739.5 L1529.88053,2739.5 L1513,2739.5 Z M1513,2749.5 L1529.88053,2749.5 L1513,2749.5 Z M1513,2759.5 L1550,2759.5 L1513,2759.5 Z M1513,2769.5 L1529.88053,2769.5 L1513,2769.5 Z M1513,2779.5 L1529.88053,2779.5 L1513,2779.5 Z M1513,2789.5 L1529.88053,2789.5 L1513,2789.5 Z M1513,2799.5 L1529.88053,2799.5 L1513,2799.5 Z M1513,2809.5 L1529.88053,2809.5 L1513,2809.5 Z M1513,2819.5 L1529.88053,2819.5 L1513,2819.5 Z M1513,2829.5 L1529.88053,2829.5 L1513,2829.5 Z M1513,2839.5 L1529.88053,2839.5 L1513,2839.5 Z M1513,2849.5 L1529.88053,2849.5 L1513,2849.5 Z M1513,2859.5 L1550,2859.5 L1513,2859.5 Z M1513,2869.5 L1529.88053,2869.5 L1513,2869.5 Z M1513,2879.5 L1529.88053,2879.5 L1513,2879.5 Z M1513,2889.5 L1529.88053,2889.5 L1513,2889.5 Z M1513,2899.5 L1529.88053,2899.5 L1513,2899.5 Z M1513,2909.5 L1529.88053,2909.5 L1513,2909.5 Z M1513,2919.5 L1529.88053,2919.5 L1513,2919.5 Z M1513,2929.5 L1529.88053,2929.5 L1513,2929.5 Z M1513,2939.5 L1529.88053,2939.5 L1513,2939.5 Z M1513,2949.5 L1529.88053,2949.5 L1513,2949.5 Z M1513,2959.5 L1550,2959.5 L1513,2959.5 Z M1513,2969.5 L1529.88053,2969.5 L1513,2969.5 Z M1513,2979.5 L1529.88053,2979.5 L1513,2979.5 Z M1513,2989.5 L1529.88053,2989.5 L1513,2989.5 Z M1513,2999.5 L1529.88053,2999.5 L1513,2999.5 Z M1513,3009.5 L1529.88053,3009.5 L1513,3009.5 Z M1513,3019.5 L1529.88053,3019.5 L1513,3019.5 Z M1513,3029.5 L1529.88053,3029.5 L1513,3029.5 Z M1513,3039.5 L1529.88053,3039.5 L1513,3039.5 Z M1513,3049.5 L1529.88053,3049.5 L1513,3049.5 Z M1513,3059.5 L1550,3059.5 L1513,3059.5 Z M1513,3069.5 L1529.88053,3069.5 L1513,3069.5 Z M1513,3079.5 L1529.88053,3079.5 L1513,3079.5 Z M1513,3089.5 L1529.88053,3089.5 L1513,3089.5 Z M1513,3099.5 L1529.88053,3099.5 L1513,3099.5 Z M1513,3109.5 L1529.88053,3109.5 L1513,3109.5 Z M1513,3119.5 L1529.88053,3119.5 L1513,3119.5 Z M1513,3129.5 L1529.88053,3129.5 L1513,3129.5 Z M1513,3139.5 L1529.88053,3139.5 L1513,3139.5 Z M1513,3149.5 L1529.88053,3149.5 L1513,3149.5 Z M1513,3159.5 L1550,3159.5 L1513,3159.5 Z M1513,3169.5 L1529.88053,3169.5 L1513,3169.5 Z M1513,3179.5 L1529.88053,3179.5 L1513,3179.5 Z M1513,3189.5 L1529.88053,3189.5 L1513,3189.5 Z M1513,3199.5 L1529.88053,3199.5 L1513,3199.5 Z M1513,3209.5 L1529.88053,3209.5 L1513,3209.5 Z M1513,3219.5 L1529.88053,3219.5 L1513,3219.5 Z M1513,3229.5 L1529.88053,3229.5 L1513,3229.5 Z M1513,3239.5 L1529.88053,3239.5 L1513,3239.5 Z M1513,3249.5 L1529.88053,3249.5 L1513,3249.5 Z M1513,3259.5 L1550,3259.5 L1513,3259.5 Z M1513,3269.5 L1529.88053,3269.5 L1513,3269.5 Z M1513,3279.5 L1529.88053,3279.5 L1513,3279.5 Z M1513,3289.5 L1529.88053,3289.5 L1513,3289.5 Z M1513,3299.5 L1529.88053,3299.5 L1513,3299.5 Z M1513,3309.5 L1529.88053,3309.5 L1513,3309.5 Z M1513,3319.5 L1529.88053,3319.5 L1513,3319.5 Z M1513,3329.5 L1529.88053,3329.5 L1513,3329.5 Z M1513,3339.5 L1529.88053,3339.5 L1513,3339.5 Z M1513,3349.5 L1529.88053,3349.5 L1513,3349.5 Z M1513,3359.5 L1550,3359.5 L1513,3359.5 Z M1513,3369.5 L1529.88053,3369.5 L1513,3369.5 Z M1513,3379.5 L1529.88053,3379.5 L1513,3379.5 Z M1513,3389.5 L1529.88053,3389.5 L1513,3389.5 Z M1513,3399.5 L1529.88053,3399.5 L1513,3399.5 Z M1513,3409.5 L1529.88053,3409.5 L1513,3409.5 Z M1513,3419.5 L1529.88053,3419.5 L1513,3419.5 Z M1513,3429.5 L1529.88053,3429.5 L1513,3429.5 Z M1513,3439.5 L1529.88053,3439.5 L1513,3439.5 Z M1513,3449.5 L1529.88053,3449.5 L1513,3449.5 Z M1513,3459.5 L1550,3459.5 L1513,3459.5 Z M1513,3469.5 L1529.88053,3469.5 L1513,3469.5 Z M1513,3479.5 L1529.88053,3479.5 L1513,3479.5 Z M1513,3489.5 L1529.88053,3489.5 L1513,3489.5 Z M1513,3499.5 L1529.88053,3499.5 L1513,3499.5 Z M1513,3509.5 L1529.88053,3509.5 L1513,3509.5 Z M1513,3519.5 L1529.88053,3519.5 L1513,3519.5 Z M1513,3529.5 L1529.88053,3529.5 L1513,3529.5 Z M1513,3539.5 L1529.88053,3539.5 L1513,3539.5 Z M1513,3549.5 L1529.88053,3549.5 L1513,3549.5 Z M1513,3559.5 L1550,3559.5 L1513,3559.5 Z M1513,3569.5 L1529.88053,3569.5 L1513,3569.5 Z M1513,3579.5 L1529.88053,3579.5 L1513,3579.5 Z M1513,3589.5 L1529.88053,3589.5 L1513,3589.5 Z M1513,3599.5 L1529.88053,3599.5 L1513,3599.5 Z M1513,3609.5 L1529.88053,3609.5 L1513,3609.5 Z M1513,3619.5 L1529.88053,3619.5 L1513,3619.5 Z M1513,3629.5 L1529.88053,3629.5 L1513,3629.5 Z M1513,3639.5 L1529.88053,3639.5 L1513,3639.5 Z M1513,3649.5 L1529.88053,3649.5 L1513,3649.5 Z M1513,3659.5 L1550,3659.5 L1513,3659.5 Z M1513,3669.5 L1529.88053,3669.5 L1513,3669.5 Z M1513,3679.5 L1529.88053,3679.5 L1513,3679.5 Z M1513,3689.5 L1529.88053,3689.5 L1513,3689.5 Z M1513,3699.5 L1529.88053,3699.5 L1513,3699.5 Z M1513,3709.5 L1529.88053,3709.5 L1513,3709.5 Z M1513,3719.5 L1529.88053,3719.5 L1513,3719.5 Z M1513,3729.5 L1529.88053,3729.5 L1513,3729.5 Z M1513,3739.5 L1529.88053,3739.5 L1513,3739.5 Z M1513,3749.5 L1529.88053,3749.5 L1513,3749.5 Z M1513,3759.5 L1550,3759.5 L1513,3759.5 Z M1513,3769.5 L1529.88053,3769.5 L1513,3769.5 Z M1513,3779.5 L1529.88053,3779.5 L1513,3779.5 Z M1513,3789.5 L1529.88053,3789.5 L1513,3789.5 Z M1513,3799.5 L1529.88053,3799.5 L1513,3799.5 Z M1513,3809.5 L1529.88053,3809.5 L1513,3809.5 Z M1513,3819.5 L1529.88053,3819.5 L1513,3819.5 Z M1513,3829.5 L1529.88053,3829.5 L1513,3829.5 Z M1513,3839.5 L1529.88053,3839.5 L1513,3839.5 Z M1513,3849.5 L1529.88053,3849.5 L1513,3849.5 Z M1513,3859.5 L1550,3859.5 L1513,3859.5 Z M1513,3869.5 L1529.88053,3869.5 L1513,3869.5 Z M1513,3879.5 L1529.88053,3879.5 L1513,3879.5 Z M1513,3889.5 L1529.88053,3889.5 L1513,3889.5 Z M1513,3899.5 L1529.88053,3899.5 L1513,3899.5 Z M1513,3909.5 L1529.88053,3909.5 L1513,3909.5 Z M1513,3919.5 L1529.88053,3919.5 L1513,3919.5 Z M1513,3929.5 L1529.88053,3929.5 L1513,3929.5 Z M1513,3939.5 L1529.88053,3939.5 L1513,3939.5 Z M1513,3949.5 L1529.88053,3949.5 L1513,3949.5 Z M1513,3959.5 L1550,3959.5 L1513,3959.5 Z M1513,3969.5 L1529.88053,3969.5 L1513,3969.5 Z M1513,3979.5 L1529.88053,3979.5 L1513,3979.5 Z M1513,3989.5 L1529.88053,3989.5 L1513,3989.5 Z M1513,3999.5 L1529.88053,3999.5 L1513,3999.5 Z M1513,4009.5 L1529.88053,4009.5 L1513,4009.5 Z M1513,4019.5 L1529.88053,4019.5 L1513,4019.5 Z M1513,4029.5 L1529.88053,4029.5 L1513,4029.5 Z M1513,4039.5 L1529.88053,4039.5 L1513,4039.5 Z M1513,4049.5 L1529.88053,4049.5 L1513,4049.5 Z M1513,4059.5 L1550,4059.5 L1513,4059.5 Z M1513,4069.5 L1529.88053,4069.5 L1513,4069.5 Z M1513,4079.5 L1529.88053,4079.5 L1513,4079.5 Z M1513,4089.5 L1529.88053,4089.5 L1513,4089.5 Z M1513,4099.5 L1529.88053,4099.5 L1513,4099.5 Z M1513,4109.5 L1529.88053,4109.5 L1513,4109.5 Z M1513,4119.5 L1529.88053,4119.5 L1513,4119.5 Z M1513,4129.5 L1529.88053,4129.5 L1513,4129.5 Z M1513,4139.5 L1529.88053,4139.5 L1513,4139.5 Z M1513,4149.5 L1529.88053,4149.5 L1513,4149.5 Z M1513,4159.5 L1550,4159.5 L1513,4159.5 Z M1513,4169.5 L1529.88053,4169.5 L1513,4169.5 Z M1513,4179.5 L1529.88053,4179.5 L1513,4179.5 Z M1513,4189.5 L1529.88053,4189.5 L1513,4189.5 Z M1513,4199.5 L1529.88053,4199.5 L1513,4199.5 Z M1513,4209.5 L1529.88053,4209.5 L1513,4209.5 Z M1513,4219.5 L1529.88053,4219.5 L1513,4219.5 Z M1513,4229.5 L1529.88053,4229.5 L1513,4229.5 Z M1513,4239.5 L1529.88053,4239.5 L1513,4239.5 Z M1513,4249.5 L1529.88053,4249.5 L1513,4249.5 Z M1513,4259.5 L1550,4259.5 L1513,4259.5 Z M1513,4269.5 L1529.88053,4269.5 L1513,4269.5 Z M1513,4279.5 L1529.88053,4279.5 L1513,4279.5 Z M1513,4289.5 L1529.88053,4289.5 L1513,4289.5 Z M1513,4299.5 L1529.88053,4299.5 L1513,4299.5 Z M1513,4309.5 L1529.88053,4309.5 L1513,4309.5 Z M1513,4319.5 L1529.88053,4319.5 L1513,4319.5 Z M1513,4329.5 L1529.88053,4329.5 L1513,4329.5 Z M1513,4339.5 L1529.88053,4339.5 L1513,4339.5 Z M1513,4349.5 L1529.88053,4349.5 L1513,4349.5 Z M1513,4359.5 L1550,4359.5 L1513,4359.5 Z M1513,4369.5 L1529.88053,4369.5 L1513,4369.5 Z M1513,4379.5 L1529.88053,4379.5 L1513,4379.5 Z M1513,4389.5 L1529.88053,4389.5 L1513,4389.5 Z M1513,4399.5 L1529.88053,4399.5 L1513,4399.5 Z M1513,4409.5 L1529.88053,4409.5 L1513,4409.5 Z M1513,4419.5 L1529.88053,4419.5 L1513,4419.5 Z M1513,4429.5 L1529.88053,4429.5 L1513,4429.5 Z M1513,4439.5 L1529.88053,4439.5 L1513,4439.5 Z M1513,4449.5 L1529.88053,4449.5 L1513,4449.5 Z M1513,4459.5 L1550,4459.5 L1513,4459.5 Z M1513,4469.5 L1529.88053,4469.5 L1513,4469.5 Z M1513,4479.5 L1529.88053,4479.5 L1513,4479.5 Z M1513,4489.5 L1529.88053,4489.5 L1513,4489.5 Z M1513,4499.5 L1529.88053,4499.5 L1513,4499.5 Z M1513,4509.5 L1529.88053,4509.5 L1513,4509.5 Z M1513,4519.5 L1529.88053,4519.5 L1513,4519.5 Z M1513,4529.5 L1529.88053,4529.5 L1513,4529.5 Z M1513,4539.5 L1529.88053,4539.5 L1513,4539.5 Z M1513,4549.5 L1529.88053,4549.5 L1513,4549.5 Z M1513,4559.5 L1550,4559.5 L1513,4559.5 Z M1513,4569.5 L1529.88053,4569.5 L1513,4569.5 Z M1513,4579.5 L1529.88053,4579.5 L1513,4579.5 Z M1513,4589.5 L1529.88053,4589.5 L1513,4589.5 Z M1513,4599.5 L1529.88053,4599.5 L1513,4599.5 Z M1513,4609.5 L1529.88053,4609.5 L1513,4609.5 Z M1513,4619.5 L1529.88053,4619.5 L1513,4619.5 Z M1513,4629.5 L1529.88053,4629.5 L1513,4629.5 Z M1513,4639.5 L1529.88053,4639.5 L1513,4639.5 Z M1513,4649.5 L1529.88053,4649.5 L1513,4649.5 Z M1513,4659.5 L1550,4659.5 L1513,4659.5 Z M1513,4669.5 L1529.88053,4669.5 L1513,4669.5 Z M1513,4679.5 L1529.88053,4679.5 L1513,4679.5 Z M1513,4689.5 L1529.88053,4689.5 L1513,4689.5 Z M1513,4699.5 L1529.88053,4699.5 L1513,4699.5 Z M1513,4709.5 L1529.88053,4709.5 L1513,4709.5 Z M1513,4719.5 L1529.88053,4719.5 L1513,4719.5 Z M1513,4729.5 L1529.88053,4729.5 L1513,4729.5 Z M1513,4739.5 L1529.88053,4739.5 L1513,4739.5 Z M1513,4749.5 L1529.88053,4749.5 L1513,4749.5 Z M1513,4759.5 L1550,4759.5 L1513,4759.5 Z M1513,4769.5 L1529.88053,4769.5 L1513,4769.5 Z M1513,4779.5 L1529.88053,4779.5 L1513,4779.5 Z M1513,4789.5 L1529.88053,4789.5 L1513,4789.5 Z M1513,4799.5 L1529.88053,4799.5 L1513,4799.5 Z M1513,4809.5 L1529.88053,4809.5 L1513,4809.5 Z M1513,4819.5 L1529.88053,4819.5 L1513,4819.5 Z M1513,4829.5 L1529.88053,4829.5 L1513,4829.5 Z M1513,4839.5 L1529.88053,4839.5 L1513,4839.5 Z M1513,4849.5 L1529.88053,4849.5 L1513,4849.5 Z M1513,4859.5 L1550,4859.5 L1513,4859.5 Z M1513,4869.5 L1529.88053,4869.5 L1513,4869.5 Z M1513,4879.5 L1529.88053,4879.5 L1513,4879.5 Z M1513,4889.5 L1529.88053,4889.5 L1513,4889.5 Z M1513,4899.5 L1529.88053,4899.5 L1513,4899.5 Z M1513,4909.5 L1529.88053,4909.5 L1513,4909.5 Z M1513,4919.5 L1529.88053,4919.5 L1513,4919.5 Z M1513,4929.5 L1529.88053,4929.5 L1513,4929.5 Z M1513,4939.5 L1529.88053,4939.5 L1513,4939.5 Z M1513,4949.5 L1529.88053,4949.5 L1513,4949.5 Z M1513,4959.5 L1550,4959.5 L1513,4959.5 Z M1513,4969.5 L1529.88053,4969.5 L1513,4969.5 Z M1513,4979.5 L1529.88053,4979.5 L1513,4979.5 Z M1513,4989.5 L1529.88053,4989.5 L1513,4989.5 Z M1513,4999.5 L1529.88053,4999.5 L1513,4999.5 Z M1513,5009.5 L1529.88053,5009.5 L1513,5009.5 Z M1513,5019.5 L1529.88053,5019.5 L1513,5019.5 Z M1513,5029.5 L1529.88053,5029.5 L1513,5029.5 Z M1513,5039.5 L1529.88053,5039.5 L1513,5039.5 Z M1513,5049.5 L1529.88053,5049.5 L1513,5049.5 Z M1513,5059.5 L1550,5059.5 L1513,5059.5 Z" id="Combined-Shape"></path>
        </g>
    </g>
</svg>