<?xml version="1.0" encoding="UTF-8"?>
<svg width="20px" height="20px" viewBox="0 0 20 20" version="1.1" xmlns="http://www.w3.org/2000/svg" xmlns:xlink="http://www.w3.org/1999/xlink">
    <!-- Generator: Sketch 53.2 (72643) - https://sketchapp.com -->
    <title>WhatsApp</title>
    <desc>Created with Sketch.</desc>
    <defs>
        <linearGradient x1="50%" y1="0%" x2="50%" y2="100%" id="linearGradient-1">
            <stop stop-color="#64FF80" offset="0%"></stop>
            <stop stop-color="#04B622" offset="100%"></stop>
        </linearGradient>
    </defs>
    <g id="Page-1" stroke="none" stroke-width="1" fill="none" fill-rule="evenodd">
        <g id="Nextcloud-Website" transform="translate(-1810.000000, -7935.000000)">
            <g id="WhatsApp" transform="translate(1810.000000, 7935.000000)">
                <path d="M15.234375,2.84217094e-14 C18.125,2.84217094e-14 20,1.875 20,4.765625 L20,15.234375 C20,18.125 18.125,20 15.234375,20 L4.765625,20 C1.875,20 0,18.125 0,15.234375 L0,4.765625 C0,1.875 1.875,2.84217094e-14 4.765625,2.84217094e-14 L15.234375,2.84217094e-14 Z" id="App-Icon-Shape" fill="url(#linearGradient-1)"></path>
                <g id="Icon" transform="translate(3.000000, 2.666667)" fill="#FFFFFF">
                    <path d="M0.361867146,13.2329236 L3.50540165,12.3608197 L3.95660727,12.2356428 L4.36915521,12.4571376 C5.23268298,12.9207613 6.19852917,13.1666667 7.20247947,13.1666667 C10.516188,13.1666667 13.2024795,10.4803752 13.2024795,7.16666667 C13.2024795,3.85295817 10.516188,1.16666667 7.20247947,1.16666667 C3.88877097,1.16666667 1.20247947,3.85295817 1.20247947,7.16666667 C1.20247947,8.25641732 1.49235104,9.30094735 2.03435518,10.2169179 L2.28681174,10.6435618 L2.15491952,11.121436 L1.31064162,14.1804386 L0.636888581,14.3673565 L0.175844449,13.9069243 L0.361867146,13.2329236 L0.361867146,13.2329236 L0.361867146,13.2329236 Z M0.0358128047,7.16666667 C0.0358128047,3.20862596 3.24443876,0 7.20247947,0 C11.1605202,0 14.3691461,3.20862596 14.3691461,7.16666667 C14.3691461,11.1247074 11.1605202,14.3333333 7.20247947,14.3333333 C5.97810576,14.3333333 4.82544371,14.0262993 3.81728754,13.4850254 L0,14.544047 L1.03030059,10.8110437 C0.398455613,9.74324488 0.0358128047,8.49730566 0.0358128047,7.16666667 L0.0358128047,7.16666667 Z" id="Shape" fill-rule="nonzero"></path>
                    <path d="M5.41211502,4.30507706 L5.88894836,5.44224373 C5.88894836,5.44224373 6.08461502,5.89474373 5.65661502,6.24924373 C5.22878169,6.6039104 5.52206119,6.95941035 5.52206119,6.95941035 C5.52206119,6.95941035 6.05326991,7.92378628 7.58010324,8.84428628 C7.58010324,8.84428628 7.98744836,9.12674373 8.34478169,8.74824373 C8.34478169,8.74824373 8.58911502,8.50224373 8.79544836,8.24274373 C8.79544836,8.24274373 9.05203964,7.88634777 9.43828169,8.13074373 C9.43828169,8.13074373 10.0080314,8.44980844 10.564615,8.73824373 C10.564615,8.73824373 11.0741683,8.94538825 10.8500017,9.48688825 C10.8500017,9.48688825 10.2067048,10.9178003 8.60352898,10.5795174 C8.60352898,10.5795174 7.44888354,10.4608561 6.43031534,9.72060331 C6.27390685,9.60693215 6.22682699,9.57847087 5.86766911,9.28716787 C5.84028584,9.26495806 5.6700442,9.10751417 5.64243619,9.08268547 C5.4532228,8.91252032 5.24804915,8.70341589 5.14276648,8.59004593 C4.323831,7.70820395 3.96794836,6.9594104 3.96794836,6.9594104 C3.96794836,6.9594104 3.5743861,6.16565816 3.51799087,5.69080893 C3.51799087,5.69080893 3.3252321,4.65532621 4.20161502,4.06057706 C4.20161502,4.06057706 5.04528169,3.41257706 5.41211502,4.30507706 Z" id="Phone"></path>
                </g>
            </g>
        </g>
    </g>
</svg>